<svg width="14" height="12" fill="none" xmlns="http://www.w3.org/2000/svg"><path d="M12.75 11.5c.314 0 .587-.104.819-.309L9.602 7.224l-.274.198c-.297.219-.538.39-.723.512a4.453 4.453 0 01-.738.375 2.25 2.25 0 01-.86.19h-.015a2.25 2.25 0 01-.86-.19 4.44 4.44 0 01-.738-.375 18.397 18.397 0 01-.722-.512l-.274-.199L.43 11.191c.231.205.504.31.819.31h11.5zM.79 4.727a4.142 4.142 0 01-.79-.68v6.035l3.496-3.496c-.7-.488-1.6-1.107-2.707-1.86zm12.428 0c-1.064.72-1.968 1.34-2.713 1.86l3.494 3.495V4.047a4.31 4.31 0 01-.78.68z" fill="#fff"/><path d="M12.75.5H1.25C.849.5.54.636.324.906.108 1.177 0 1.516 0 1.922c0 .328.143.683.43 1.066.286.383.59.684.914.903.177.125.71.496 1.601 1.113A515.636 515.636 0 014.992 6.43l.117.083.215.155c.17.122.31.221.422.297.112.076.247.16.406.254.16.093.309.164.45.21.14.048.27.071.39.071h.016c.12 0 .25-.023.39-.07.14-.047.29-.117.45-.211a9.17 9.17 0 00.828-.551 52.1 52.1 0 01.332-.238l.79-.55 2.866-1.99c.38-.265.698-.585.953-.96S14 2.162 14 1.75a1.2 1.2 0 00-.371-.883 1.208 1.208 0 00-.88-.367z" fill="#fff"/></svg>