<svg width="109" height="30" viewBox="0 0 109 30" fill="none" xmlns="http://www.w3.org/2000/svg">
<rect width="109" height="30" rx="3" fill="url(#paint0_linear)"/>
<g clip-path="url(#clip0)">
<path d="M21.0398 23H16.3998C16.2398 23 16.2398 23 16.0798 22.84C16.0798 22.84 15.9198 22.68 15.9198 22.52C15.9198 22.04 15.9198 19 13.8398 15.16C13.9998 15.16 13.9998 14.84 14.1598 14.68C16.0798 10.84 16.2398 7.96 16.2398 7.32C16.2398 7.16 16.2398 7.16 16.3998 7C16.2398 7 16.3998 7 16.3998 7H21.0398C21.1998 7 21.1998 7 21.3598 7.16C21.3598 7.16 21.5198 7.32 21.5198 7.48C21.5198 7.96 21.5198 11 23.5998 14.84C23.5998 14.84 23.5998 15.16 23.4398 15.32C21.5198 19.16 21.5198 22.04 21.5198 22.68C21.5198 22.84 21.5198 22.84 21.3598 23C21.1998 23 21.1998 23 21.0398 23ZM16.7198 22.36H20.8798C20.8798 21.4 21.1998 18.68 22.9598 15V14.84C21.1998 11.32 20.8798 8.44 20.8798 7.48H16.7198C16.7198 8.44 16.3998 11.16 14.6398 14.84V15C16.3998 18.68 16.7198 21.56 16.7198 22.36Z" fill="white"/>
<path d="M20.5597 8.59998C20.7197 9.39998 20.7197 11.48 22.3197 14.68C22.3197 14.84 22.4797 15 22.3197 15.16C21.8397 16.44 20.8797 18.2 20.5597 21.72C20.5597 21.72 20.5597 21.88 20.3997 21.88H17.1997L20.5597 8.59998Z" fill="white"/>
<path d="M28.0801 19V11H31.1201C31.7601 11 32.2401 11.16 32.5601 11.32C32.8801 11.48 33.2001 11.8 33.3601 12.12C33.5201 12.44 33.6801 12.76 33.6801 13.24C33.6801 13.56 33.5201 13.88 33.3601 14.2C33.2001 14.52 32.8801 14.68 32.5601 15C33.0401 15.16 33.3601 15.32 33.6801 15.8C34.0001 16.12 34.0001 16.6 34.0001 17.08C34.0001 17.4 34.0001 17.88 33.8401 18.2C33.6801 18.52 33.5201 18.84 33.2001 19C33.0401 19.16 32.7201 19.32 32.4001 19.32C32.0801 19.48 31.6001 19.48 31.1201 19.48H28.0801V19ZM29.2001 14.36H30.9601C31.4401 14.36 31.7601 14.36 31.9201 14.2C32.2401 14.2 32.4001 14.04 32.5601 13.88C32.7201 13.72 32.7201 13.4 32.7201 13.24C32.7201 12.92 32.7201 12.76 32.5601 12.6C32.4001 12.44 32.2401 12.28 32.0801 12.12C31.9201 12.12 31.4401 11.96 30.8001 11.96H29.2001V14.36ZM29.2001 18.04H31.1201C31.4401 18.04 31.7601 18.04 31.7601 18.04C32.0801 18.04 32.2401 17.88 32.4001 17.88C32.5601 17.72 32.7201 17.56 32.8801 17.4C33.0401 17.24 33.0401 16.92 33.0401 16.76C33.0401 16.44 33.0401 16.28 32.8801 15.96C32.7201 15.8 32.5601 15.64 32.2401 15.48C31.9201 15.32 31.6001 15.32 31.1201 15.32H29.2001V18.04Z" fill="white"/>
<path d="M34.6401 19L37.6801 11H38.8001L42.0001 19H40.7201L39.7601 16.6H36.4001L35.6001 19H34.6401ZM37.0401 15.64H39.7601L38.8001 13.4C38.4801 12.76 38.3201 12.12 38.1601 11.8C38.0001 12.28 37.8401 12.76 37.6801 13.4L37.0401 15.64Z" fill="white"/>
<path d="M42.96 19V11H44.08L48.24 17.24V11H49.2V19H48.08L43.92 12.76V19H42.96Z" fill="white"/>
<path d="M50.96 19V11H52.08V15L56.08 11H57.52L54.16 14.2L57.68 19H56.24L53.36 15L52.08 16.28V19H50.96Z" fill="white"/>
<path d="M58.6401 19V11H59.7601V19H58.6401Z" fill="white"/>
<path d="M61.52 19V11H64.24C64.88 11 65.36 11 65.68 11.16C66.16 11.32 66.48 11.48 66.8 11.8C67.28 12.12 67.6 12.6 67.76 13.24C67.92 13.72 68.08 14.36 68.08 15.16C68.08 15.8 68.08 16.28 67.92 16.76C67.76 17.24 67.6 17.56 67.44 17.88C67.28 18.2 66.96 18.36 66.64 18.68C66.32 19 66 19 65.68 19C65.36 19.16 64.88 19.16 64.4 19.16H61.52V19ZM62.64 18.04H64.4C64.88 18.04 65.36 18.04 65.68 17.88C66 17.72 66.16 17.72 66.32 17.4C66.64 17.08 66.8 16.76 66.96 16.44C67.12 16.12 67.12 15.48 67.12 14.84C67.12 14.04 66.96 13.4 66.64 12.92C66.32 12.44 66 12.12 65.68 11.96C65.36 11.8 64.88 11.8 64.24 11.8H62.64V18.04Z" fill="white"/>
<path d="M72.7202 19V11H73.8402V14.2H78.0002V11H79.1202V19H78.0002V15.16H73.8402V18.84H72.7202V19Z" fill="white"/>
<path d="M80.7201 11H86.0001V11.96H81.8401V14.36H83.7601C84.4001 14.36 85.0401 14.36 85.3601 14.52C85.8401 14.68 86.1601 14.84 86.3201 15.32C86.6401 15.64 86.6401 16.12 86.6401 16.6C86.6401 17.08 86.4801 17.4 86.3201 17.72C86.1601 18.04 85.8401 18.36 85.5201 18.52C85.2001 18.68 84.5601 18.84 83.7601 18.84H80.5601V11H80.7201ZM81.8401 18.04H83.9201C84.5601 18.04 84.8801 17.88 85.2001 17.72C85.5201 17.56 85.6801 17.08 85.6801 16.6C85.6801 16.28 85.5201 15.96 85.3601 15.8C85.2001 15.64 85.0401 15.48 84.7201 15.32C84.4001 15.32 83.9201 15.16 83.2801 15.16H81.8401V18.04Z" fill="white"/>
<path d="M86.96 11H88.08L90.64 15.96L92.88 11H94L90.96 17.24C90.64 18.04 90.32 18.52 90 18.84C89.84 19 89.36 19.16 89.04 19.16C88.72 19.16 88.4 19.16 88.08 19V17.88C88.24 18.04 88.56 18.2 88.88 18.2C89.2 18.2 89.36 18.04 89.52 17.88C89.68 17.72 89.84 17.4 90.16 16.76L86.96 11Z" fill="white"/>
</g>
<defs>
<linearGradient id="paint0_linear" x1="29.5208" y1="1.25" x2="77.8777" y2="41.6487" gradientUnits="userSpaceOnUse">
<stop stop-color="#2D4251"/>
<stop offset="1" stop-color="#4E718A"/>
</linearGradient>
<clipPath id="clip0">
<rect width="80" height="16" fill="white" transform="translate(14 7)"/>
</clipPath>
</defs>
</svg>
