<svg width="42" height="42" viewBox="0 0 42 42" fill="none" xmlns="http://www.w3.org/2000/svg">
<path d="M31.1615 0.677948V2.03385H33.5922L19.6446 15.9815L12.8733 9.20197L4.2666 17.8087L5.21739 18.7677L12.8733 11.1201L19.6446 17.8913L34.5512 2.99291V5.41535H35.9072V0.677948H31.1615Z" fill="url(#paint0_linear)"/>
<path d="M40.6441 39.9661V10.161H33.8728V39.9661H32.5169V14.2287H25.7457V39.9744H24.3898V23.7118H17.6102V39.9661H16.2543V19.6441H9.48307V39.9661H8.12717V30.483H1.35591V39.9661H0V41.322H42V39.9661H40.6441ZM6.77953 39.9661H2.71181V31.8389H6.77953V39.9661ZM14.9067 39.9661H10.839V21H14.9067V39.9661ZM23.0339 39.9744H18.9661V25.0677H23.0339V39.9744ZM31.161 39.9744H27.0933V15.5846H31.161V39.9744ZM39.2965 39.9661H35.2287V11.5169H39.2965V39.9661Z" fill="url(#paint1_linear)"/>
<defs>
<linearGradient id="paint0_linear" x1="12.8359" y1="1.43169" x2="33.3517" y2="9.68261" gradientUnits="userSpaceOnUse">
<stop stop-color="#FFAA32"/>
<stop offset="1" stop-color="#FF7A00"/>
</linearGradient>
<linearGradient id="paint1_linear" x1="11.375" y1="11.4594" x2="40.2402" y2="20.4051" gradientUnits="userSpaceOnUse">
<stop stop-color="#FFAA32"/>
<stop offset="1" stop-color="#FF7A00"/>
</linearGradient>
</defs>
</svg>
