<svg width="42" height="42" viewBox="0 0 42 42" fill="none" xmlns="http://www.w3.org/2000/svg">
<path d="M41.6653 15.0806C41.1988 12.8983 40.272 10.9354 38.9135 9.25084L38.9031 9.23804C38.6206 8.88613 38.1065 8.82821 37.7529 9.1095C37.3983 9.39152 37.3394 9.90758 37.6213 10.2621L37.6329 10.2763C38.8318 11.7632 39.6487 13.495 40.0609 15.4234C40.4769 17.37 40.4569 19.4218 40.0012 21.5218C39.1413 25.4851 36.8057 29.1977 33.4249 31.9757C30.0313 34.7643 25.9636 36.3 21.9713 36.3C19.9109 36.3 17.9814 35.8946 16.2362 35.0951C14.5141 34.306 13.0489 33.1718 11.8813 31.7237C10.71 30.2709 9.90433 28.584 9.48351 26.7091H11.1637C11.5429 28.1716 12.2112 29.5191 13.1584 30.694C15.2202 33.251 18.35 34.6594 21.9713 34.6594C22.1349 34.6594 22.2988 34.6555 22.4627 34.6498C22.5026 34.6556 22.5423 34.6595 22.5816 34.6595C22.6483 34.6595 22.7137 34.6509 22.7768 34.6353C26.1302 34.4439 29.5126 33.0671 32.3833 30.7081C35.4799 28.1636 37.6159 24.7776 38.3977 21.1739C38.398 21.1725 38.3983 21.1711 38.3985 21.1697C38.3992 21.1668 38.3998 21.1638 38.4003 21.1608C39.2045 17.4385 38.4786 13.9391 36.3556 11.306C34.2966 8.75225 31.1722 7.34451 27.5569 7.34082C27.5533 7.34074 27.5497 7.34074 27.5461 7.34066C27.545 7.34066 27.5439 7.34066 27.5428 7.34066C23.9294 7.34066 20.2317 8.74388 17.1308 11.2919C14.0342 13.8364 11.8982 17.2223 11.1163 20.826C11.1159 20.8277 11.1156 20.8293 11.1153 20.831C11.1148 20.8335 11.1143 20.8359 11.1138 20.8384C10.7989 22.2956 10.7195 23.7183 10.8656 25.0685H9.22052C9.07614 23.5809 9.17351 22.043 9.51304 20.4782C10.373 16.515 12.7084 12.8024 16.0892 10.0243C19.4829 7.23574 23.5505 5.70003 27.5428 5.70003C29.1621 5.70003 30.7119 5.95326 32.1487 6.45275C32.5767 6.60164 33.0441 6.37515 33.1929 5.94719C33.3416 5.51924 33.1154 5.05174 32.6874 4.90302C31.0768 4.34324 29.346 4.05933 27.5428 4.05933C23.4255 4.05933 19.2497 5.53974 15.698 8.24292H5.49539C5.04234 8.24292 4.67508 8.61017 4.67508 9.06323C4.67508 9.51629 5.04234 9.88354 5.49539 9.88354H13.7792C10.7981 12.7414 8.73514 16.3259 7.90974 20.1302C7.54577 21.8075 7.4347 23.4614 7.57398 25.0684H4.50684C4.05378 25.0684 3.68652 25.4357 3.68652 25.8887C3.68652 26.3418 4.05378 26.7091 4.50684 26.7091H7.80703C7.82098 26.7792 7.83402 26.8495 7.84895 26.9194C8.3153 29.1016 9.24234 31.0644 10.6042 32.7535C11.9327 34.4011 13.5977 35.6908 15.5529 36.5867C17.514 37.4851 19.6735 37.9406 21.9714 37.9406C26.3426 37.9406 30.7801 36.2724 34.4665 33.2433C38.1316 30.2317 40.6665 26.1925 41.6046 21.8696C42.1098 19.5406 42.1303 17.2563 41.6653 15.0806ZM12.5968 21.8203H13.5194C13.9724 21.8203 14.3397 21.4531 14.3397 21C14.3397 20.5469 13.9724 20.1797 13.5194 20.1797H12.9762C13.8318 17.3086 15.6493 14.6327 18.1724 12.5595C20.6841 10.4956 23.6116 9.26199 26.5161 9.02435L26.3938 9.5884C26.2977 10.0311 26.5787 10.4679 27.0215 10.564C27.0801 10.5767 27.1386 10.5828 27.1962 10.5828C27.5739 10.5828 27.9137 10.3204 27.9971 9.93621L28.2002 8.9999C31.0337 9.15626 33.4584 10.3263 35.0785 12.3358C36.7654 14.428 37.4084 17.193 36.9174 20.1797H35.9948C35.5418 20.1797 35.1745 20.5469 35.1745 21C35.1745 21.4531 35.5418 21.8203 35.9948 21.8203H36.5379C35.6823 24.6914 33.8649 27.3673 31.3417 29.4405C29.0098 31.3567 26.3195 32.5571 23.6219 32.9094L23.73 32.4116C23.826 31.9689 23.545 31.5321 23.1023 31.436C22.6595 31.3396 22.2226 31.6209 22.1267 32.0637L21.9195 33.0182C18.8265 33.0049 16.1701 31.8154 14.4356 29.6642C13.728 28.7867 13.2049 27.7902 12.8712 26.7091H16.3703C16.8233 26.7091 17.1906 26.3419 17.1906 25.8888C17.1906 25.4358 16.8233 25.0685 16.3703 25.0685H12.5192C12.3883 24.0329 12.4123 22.9424 12.5968 21.8203Z" fill="url(#paint0_linear)"/>
<path d="M21.4897 24.5064C21.673 24.5064 21.8573 24.4453 22.01 24.3199L25.2789 21.6339C25.4216 21.5166 25.5206 21.3546 25.5598 21.174L27.2056 13.5885C27.3016 13.1458 27.0206 12.709 26.5779 12.6129C26.1353 12.5168 25.6983 12.7979 25.6023 13.2406L24.0169 20.5474L20.9685 23.0523C20.6185 23.3399 20.5678 23.8568 20.8555 24.2069C21.0176 24.4042 21.2527 24.5064 21.4897 24.5064Z" fill="url(#paint1_linear)"/>
<path d="M0.820312 16.9474H6.42059C6.87364 16.9474 7.2409 16.5802 7.2409 16.1271C7.2409 15.674 6.87364 15.3068 6.42059 15.3068H0.820312C0.367254 15.3068 0 15.674 0 16.1271C0 16.5802 0.367254 16.9474 0.820312 16.9474Z" fill="url(#paint2_linear)"/>
<path d="M7.24946 32.5334H2.97949C2.52643 32.5334 2.15918 32.9006 2.15918 33.3537C2.15918 33.8067 2.52643 34.174 2.97949 34.174H7.24946C7.70252 34.174 8.06978 33.8067 8.06978 33.3537C8.06978 32.9006 7.70252 32.5334 7.24946 32.5334Z" fill="url(#paint3_linear)"/>
<path d="M1.5771 25.575C1.29483 24.8973 0.298482 24.9211 0.048205 25.6123C-0.0703302 25.9398 0.0399198 26.322 0.315463 26.5354C0.582639 26.7423 0.955717 26.7647 1.24496 26.59C1.58662 26.3836 1.73075 25.9435 1.5771 25.575Z" fill="url(#paint4_linear)"/>
<path d="M34.9589 7.69624C35.1306 8.10845 35.617 8.31156 36.0303 8.14003C36.4434 7.96858 36.6447 7.48189 36.474 7.0687C36.3035 6.65584 35.8154 6.45363 35.4027 6.62491C34.9889 6.79669 34.7893 7.28239 34.9589 7.69624Z" fill="url(#paint5_linear)"/>
<defs>
<linearGradient id="paint0_linear" x1="14.0629" y1="5.47104" x2="41.0956" y2="12.4998" gradientUnits="userSpaceOnUse">
<stop stop-color="#FFAA32"/>
<stop offset="1" stop-color="#FF7A00"/>
</linearGradient>
<linearGradient id="paint1_linear" x1="22.4444" y1="13.0904" x2="27.3046" y2="13.7054" gradientUnits="userSpaceOnUse">
<stop stop-color="#FFAA32"/>
<stop offset="1" stop-color="#FF7A00"/>
</linearGradient>
<linearGradient id="paint2_linear" x1="1.96108" y1="15.3752" x2="4.64817" y2="18.1021" gradientUnits="userSpaceOnUse">
<stop stop-color="#FFAA32"/>
<stop offset="1" stop-color="#FF7A00"/>
</linearGradient>
<linearGradient id="paint3_linear" x1="3.75997" y1="32.6017" x2="6.4004" y2="34.789" gradientUnits="userSpaceOnUse">
<stop stop-color="#FFAA32"/>
<stop offset="1" stop-color="#FF7A00"/>
</linearGradient>
<linearGradient id="paint4_linear" x1="0.444447" y1="25.1478" x2="1.6152" y2="25.4187" gradientUnits="userSpaceOnUse">
<stop stop-color="#FFAA32"/>
<stop offset="1" stop-color="#FF7A00"/>
</linearGradient>
<linearGradient id="paint5_linear" x1="35.3416" y1="6.63209" x2="36.5125" y2="6.90117" gradientUnits="userSpaceOnUse">
<stop stop-color="#FFAA32"/>
<stop offset="1" stop-color="#FF7A00"/>
</linearGradient>
</defs>
</svg>
