<svg width="42" height="42" viewBox="0 0 42 42" fill="none" xmlns="http://www.w3.org/2000/svg">
<path d="M1.365 28.6178C1.38797 28.9065 1.59731 29.146 1.88081 29.2071L4.16784 29.7006C4.24856 30.0904 4.35094 30.4749 4.47497 30.8503L2.74378 32.4188C2.52919 32.613 2.4675 32.9254 2.59219 33.1872C2.9085 33.8527 3.26091 34.4676 3.63956 35.0149C3.80363 35.2524 4.10419 35.3548 4.38047 35.2662L6.60319 34.5503C6.86897 34.8482 7.15181 35.131 7.44975 35.3968L6.73378 37.6195C6.64519 37.8945 6.74691 38.1957 6.98513 38.3604C7.53244 38.7391 8.14734 39.0915 8.81278 39.4078C9.07528 39.5325 9.387 39.4702 9.58125 39.2562L11.1497 37.525C11.5257 37.6484 11.9103 37.7514 12.3001 37.8322L12.7936 40.1192C12.8546 40.402 13.0942 40.6114 13.3822 40.635C13.7314 40.6626 14.0812 40.6875 14.4375 40.6875C14.7938 40.6875 15.1436 40.6626 15.4928 40.635C15.7815 40.612 16.021 40.4027 16.0821 40.1192L16.5756 37.8322C16.9654 37.7514 17.3506 37.6491 17.726 37.525L19.2944 39.2562C19.4893 39.4708 19.8017 39.5332 20.0629 39.4078C20.7283 39.0915 21.3432 38.7384 21.8905 38.3604C22.1287 38.1957 22.2305 37.8945 22.1419 37.6195L21.4259 35.3968C21.7238 35.131 22.0067 34.8482 22.2725 34.5509L24.4952 35.2669C24.7702 35.3561 25.0714 35.2537 25.2361 35.0155C25.6148 34.4682 25.9672 33.8533 26.2835 33.1879C26.4082 32.926 26.3465 32.6137 26.1319 32.4194L24.4007 30.851C24.5241 30.4749 24.6271 30.0904 24.7078 29.7006L26.9948 29.2071C27.2777 29.146 27.487 28.9065 27.5107 28.6184C27.5376 28.2686 27.5625 27.9188 27.5625 27.5625C27.5625 27.2062 27.5376 26.8564 27.51 26.5073C27.487 26.2185 27.2777 25.979 26.9942 25.9179L24.7072 25.4244C24.6264 25.0346 24.5241 24.6494 24.4 24.274L26.1312 22.7056C26.3458 22.5113 26.4075 22.199 26.2828 21.9371C25.9665 21.2717 25.6134 20.6568 25.2354 20.1095C25.0707 19.8713 24.7695 19.7689 24.4945 19.8581L22.2718 20.5741C22.006 20.2762 21.7232 19.9933 21.4252 19.7275L22.1412 17.5048C22.2298 17.2298 22.1281 16.9286 21.8899 16.7639C21.3426 16.3853 20.7277 16.0328 20.0622 15.7165C19.7997 15.5912 19.488 15.6535 19.2937 15.8681L17.7253 17.5993C17.3493 17.4759 16.9647 17.3729 16.5749 17.2922L16.0814 15.0052C16.0204 14.7223 15.7808 14.513 15.4928 14.4893C14.7938 14.4329 14.0805 14.4342 13.3816 14.4893C13.0928 14.5123 12.8533 14.7217 12.7923 15.0052L12.2988 17.2922C11.909 17.3729 11.5244 17.4753 11.149 17.5993L9.58059 15.8681C9.38634 15.6535 9.07463 15.5918 8.81213 15.7165C8.14669 16.0328 7.53178 16.3853 6.98447 16.7639C6.74625 16.9286 6.64453 17.2298 6.73313 17.5048L7.44909 19.7275C7.15116 19.9933 6.86831 20.2762 6.60253 20.5741L4.38047 19.8581C4.10484 19.7689 3.80363 19.8713 3.63956 20.1095C3.26091 20.6568 2.9085 21.2717 2.59219 21.9371C2.4675 22.199 2.52919 22.5113 2.74378 22.7056L4.47497 24.274C4.35159 24.6501 4.24856 25.0346 4.16784 25.4244L1.88081 25.9179C1.59797 25.979 1.38862 26.2185 1.365 26.5066C1.33744 26.8564 1.3125 27.2062 1.3125 27.5625C1.3125 27.9188 1.33744 28.2686 1.365 28.6178ZM2.63878 27.0972L4.87134 26.6149C5.13516 26.5578 5.33728 26.3452 5.38059 26.0787C5.47903 25.4737 5.63784 24.8798 5.85244 24.3128C5.94825 24.0608 5.87934 23.7753 5.67919 23.5942L3.99328 22.0664C4.14028 21.7849 4.29384 21.5152 4.45266 21.2599L6.61566 21.9568C6.87159 22.0388 7.15378 21.9568 7.32506 21.7481C7.71225 21.2743 8.14931 20.8379 8.62313 20.4501C8.83181 20.2794 8.91516 19.9979 8.83181 19.7407L8.13487 17.5777C8.39016 17.4182 8.65922 17.2646 8.94141 17.1183L10.4692 18.8048C10.6509 19.005 10.9371 19.0739 11.1884 18.9781C11.7541 18.7635 12.348 18.6047 12.9537 18.5063C13.2202 18.4629 13.4328 18.2608 13.4899 17.997L13.9716 15.7644C14.2807 15.748 14.595 15.7474 14.9028 15.7644L15.3851 17.997C15.4422 18.2608 15.6548 18.4629 15.9213 18.5063C16.5263 18.6047 17.1202 18.7635 17.6873 18.9781C17.9379 19.0739 18.2241 19.0057 18.4058 18.8048L19.9336 17.1189C20.2151 17.2659 20.4848 17.4195 20.7401 17.5783L20.0432 19.7413C19.9605 19.9986 20.0432 20.2794 20.2519 20.4507C20.7257 20.8379 21.1621 21.275 21.5499 21.7488C21.7212 21.9581 22.0027 22.0415 22.2593 21.9575L24.4223 21.2605C24.5818 21.5158 24.7354 21.7849 24.8817 22.0664L23.1952 23.5942C22.995 23.7753 22.9261 24.0608 23.0219 24.3134C23.2365 24.8791 23.3953 25.473 23.4937 26.0787C23.5371 26.3452 23.7392 26.5578 24.003 26.6149L26.2356 27.0966C26.2441 27.2508 26.25 27.4063 26.25 27.5625C26.25 27.7187 26.2448 27.8742 26.2362 28.0278L24.0037 28.5101C23.7398 28.5672 23.5377 28.7798 23.4944 29.0463C23.396 29.6513 23.2372 30.2453 23.0226 30.8123C22.9268 31.0643 22.9957 31.3497 23.1958 31.5308L24.8817 33.0586C24.7347 33.3401 24.5812 33.6098 24.4223 33.8651L22.2593 33.1682C22.0014 33.0842 21.7212 33.1675 21.5499 33.3769C21.1634 33.8494 20.7263 34.2864 20.2519 34.6749C20.0432 34.8456 19.9605 35.1271 20.0432 35.3837L20.7401 37.5467C20.4848 37.7062 20.2158 37.8597 19.9342 38.0061L18.4065 36.3195C18.2254 36.1193 17.9399 36.0518 17.6873 36.1463C17.1216 36.3608 16.5277 36.5197 15.9219 36.6181C15.6555 36.6614 15.4429 36.8635 15.3858 37.1273L14.9041 39.3599C14.595 39.3763 14.2807 39.377 13.9729 39.3599L13.4905 37.1273C13.4334 36.8635 13.2208 36.6614 12.9544 36.6181C12.3493 36.5197 11.7554 36.3608 11.1884 36.1463C10.9371 36.0504 10.6509 36.1187 10.4698 36.3195L8.94206 38.0054C8.66053 37.8584 8.39081 37.7048 8.13553 37.546L8.83247 35.383C8.91516 35.1258 8.83247 34.8449 8.62378 34.6736C8.14997 34.2864 7.71356 33.8494 7.32572 33.3756C7.15444 33.1662 6.87225 33.0835 6.61631 33.1669L4.45331 33.8638C4.29384 33.6085 4.14028 33.3395 3.99394 33.0573L5.6805 31.5295C5.88066 31.3484 5.94956 31.0629 5.85375 30.8103C5.63916 30.2446 5.48034 29.6507 5.38191 29.045C5.33859 28.7785 5.13647 28.5659 4.87266 28.5088L2.63878 28.0284C2.63091 27.8742 2.625 27.7187 2.625 27.5625C2.625 27.4063 2.63025 27.2508 2.63878 27.0972Z" fill="url(#paint0_linear)"/>
<path d="M35.5812 10.6542C35.828 10.5768 36.0065 10.3609 36.036 10.1036C36.0754 9.77223 36.0938 9.47232 36.0938 9.18751C36.0938 8.9027 36.0754 8.60279 36.0367 8.27138C36.0071 8.01413 35.8286 7.79823 35.5819 7.72079L33.7621 7.1492C33.7076 7.00023 33.6473 6.85388 33.581 6.71082L34.463 5.02098C34.5824 4.79194 34.5562 4.51369 34.396 4.31026C34.0161 3.82988 33.579 3.39282 33.0973 3.01154C32.8939 2.85076 32.6156 2.82516 32.3866 2.94395L30.6954 3.82595C30.5524 3.76032 30.406 3.69994 30.2571 3.64548L29.6855 1.8257C29.608 1.57895 29.3921 1.40045 29.1349 1.37091C28.4707 1.29348 27.9661 1.29348 27.302 1.37091C27.0447 1.40045 26.8288 1.57895 26.7514 1.8257L26.1798 3.64548C26.0308 3.69994 25.8845 3.76032 25.7414 3.8266L24.0516 2.9446C23.8225 2.82582 23.5449 2.85141 23.3408 3.01154C22.8605 3.39151 22.4234 3.82857 22.0421 4.31026C21.8813 4.51369 21.8551 4.79129 21.9745 5.02098L22.8559 6.71082C22.7902 6.85388 22.7299 7.00023 22.6754 7.1492L20.8556 7.72079C20.6089 7.79823 20.4304 8.01413 20.4008 8.27138C20.3621 8.60279 20.3438 8.9027 20.3438 9.18751C20.3438 9.47232 20.3621 9.77223 20.4008 10.1036C20.4304 10.3609 20.6089 10.5768 20.8556 10.6542L22.6754 11.2258C22.7299 11.3748 22.7902 11.5211 22.8565 11.6642L21.9745 13.354C21.8551 13.5831 21.8813 13.8613 22.0415 14.0648C22.4214 14.5451 22.8585 14.9822 23.3402 15.3635C23.543 15.5243 23.8219 15.5499 24.0509 15.4311L25.7407 14.5497C25.8838 14.6154 26.0302 14.6757 26.1791 14.7302L26.7507 16.55C26.8282 16.7967 27.0441 16.9752 27.3013 17.0048C27.634 17.0441 27.9339 17.0625 28.2188 17.0625C28.5036 17.0625 28.8035 17.0441 29.1349 17.0054C29.3921 16.9759 29.608 16.7974 29.6855 16.5506L30.2571 14.7309C30.406 14.6764 30.5524 14.616 30.6954 14.5497L32.3853 15.4317C32.6143 15.5512 32.8926 15.5256 33.096 15.3648C33.5764 14.9848 34.0134 14.5478 34.3947 14.0661C34.5555 13.8626 34.5817 13.585 34.4623 13.3554L33.5803 11.6655C33.6466 11.5224 33.707 11.3761 33.7614 11.2271L35.5812 10.6542ZM33.0481 10.0741C32.8407 10.1397 32.6793 10.3031 32.6163 10.5118C32.527 10.8084 32.4089 11.0939 32.2658 11.361C32.1628 11.5526 32.1608 11.783 32.2619 11.9753L33.0947 13.5713C32.9392 13.7439 32.7744 13.9086 32.6025 14.0634L31.0065 13.2307C30.8136 13.1296 30.5832 13.1322 30.3923 13.2346C30.1252 13.3777 29.8397 13.4958 29.5431 13.585C29.335 13.6474 29.171 13.8095 29.1053 14.0169L28.5646 15.7389C28.3251 15.7533 28.1131 15.7533 27.8729 15.7389L27.3322 14.0169C27.2665 13.8095 27.1031 13.648 26.8944 13.585C26.5972 13.4958 26.3117 13.3777 26.0459 13.2346C25.8543 13.1316 25.6239 13.1296 25.431 13.2307L23.835 14.0634C23.6624 13.9079 23.4977 13.7432 23.3428 13.5713L24.1756 11.9753C24.276 11.783 24.2747 11.552 24.1717 11.361C24.0286 11.0939 23.9105 10.8084 23.8212 10.5118C23.7589 10.3038 23.5968 10.1397 23.3894 10.0741L21.6674 9.53335C21.6595 9.41326 21.6562 9.29841 21.6562 9.18751C21.6562 9.0766 21.6595 8.96176 21.6674 8.84166L23.3894 8.30091C23.5968 8.23529 23.7582 8.07188 23.8212 7.8632C23.9105 7.56591 24.0286 7.28045 24.1717 7.01466C24.2747 6.82304 24.2767 6.59269 24.1756 6.39976L23.3428 4.80376C23.4983 4.63116 23.6631 4.46644 23.835 4.31157L25.431 5.14435C25.6233 5.24476 25.8543 5.24279 26.0452 5.14041C26.3123 4.99735 26.5978 4.87923 26.8944 4.78998C27.1025 4.72763 27.2665 4.56554 27.3322 4.35816L27.8729 2.63616C28.1124 2.62173 28.3244 2.62173 28.5646 2.63616L29.1053 4.35816C29.171 4.56554 29.3344 4.72698 29.5431 4.78998C29.8403 4.87923 30.1258 4.99735 30.3916 5.14041C30.5832 5.24345 30.8136 5.24541 31.0065 5.14435L32.6025 4.31157C32.7751 4.4671 32.9398 4.63182 33.0947 4.80376L32.2619 6.39976C32.1615 6.59204 32.1628 6.82304 32.2658 7.01401C32.4089 7.2811 32.527 7.56657 32.6163 7.8632C32.6786 8.07123 32.8407 8.23529 33.0481 8.30091L34.7701 8.84166C34.778 8.96176 34.7812 9.0766 34.7812 9.18751C34.7812 9.29841 34.778 9.41326 34.7701 9.53335L33.0481 10.0741Z" fill="url(#paint1_linear)"/>
<path d="M40.2032 22.9451L39.0757 22.5448C39.0114 22.3617 38.9379 22.1826 38.8546 22.0086L39.3671 20.9291C39.4741 20.7047 39.4446 20.4396 39.291 20.244C38.9629 19.8247 38.5836 19.4447 38.1629 19.1152C37.9667 18.9617 37.7003 18.9328 37.4771 19.0391L36.3969 19.5517C36.2237 19.469 36.0445 19.3948 35.8614 19.3312L35.4605 18.2037C35.3771 17.9694 35.1678 17.8021 34.921 17.7719C34.3363 17.7017 33.913 17.7017 33.3283 17.7719C33.0816 17.8014 32.8722 17.9688 32.7889 18.2037L32.3886 19.3312C32.2055 19.3955 32.0263 19.469 31.8524 19.5523L30.7729 19.0398C30.5497 18.9335 30.284 18.963 30.0877 19.1159C29.6684 19.444 29.2884 19.8233 28.959 20.244C28.8061 20.4396 28.7766 20.7053 28.8829 20.9298L29.3954 22.01C29.3127 22.1832 29.2386 22.3624 29.1749 22.5455L28.0475 22.9464C27.8132 23.0298 27.6458 23.2391 27.6157 23.4859C27.5796 23.7766 27.5625 24.0371 27.5625 24.2812C27.5625 24.5254 27.5796 24.7852 27.615 25.0773C27.6445 25.324 27.8119 25.5334 28.0468 25.6167L29.1743 26.017C29.2386 26.2001 29.3121 26.3793 29.3954 26.5532L28.8829 27.6327C28.7759 27.8571 28.8054 28.1223 28.959 28.3178C29.2871 28.7372 29.6664 29.1171 30.0871 29.4466C30.2827 29.5995 30.5491 29.629 30.7729 29.5227L31.8531 29.0102C32.0263 29.0929 32.2055 29.167 32.3886 29.2307L32.7895 30.3581C32.8729 30.5924 33.0822 30.7597 33.329 30.7899C33.621 30.8267 33.8809 30.8437 34.125 30.8437C34.3691 30.8437 34.629 30.8267 34.921 30.7912C35.1678 30.7617 35.3771 30.5944 35.4605 30.3594L35.8608 29.232C36.0439 29.1677 36.223 29.0942 36.3969 29.0108L37.4765 29.5234C37.7002 29.6303 37.9667 29.6015 38.1616 29.4472C38.5809 29.1191 38.9609 28.7398 39.2903 28.3191C39.4432 28.1236 39.4728 27.8578 39.3665 27.6334L38.8539 26.5532C38.9366 26.3799 39.0108 26.2008 39.0744 26.0177L40.2019 25.6167C40.4362 25.5334 40.6035 25.324 40.6337 25.0773C40.6704 24.7852 40.6875 24.5254 40.6875 24.2812C40.6875 24.0371 40.6704 23.7772 40.635 23.4852C40.6055 23.2378 40.4381 23.0291 40.2032 22.9451ZM39.3684 24.5208L38.3283 24.8902C38.1268 24.9618 37.9726 25.1271 37.9155 25.3332C37.8295 25.6449 37.7068 25.9422 37.5513 26.2172C37.4463 26.4029 37.4384 26.6286 37.5296 26.8216L38.0008 27.8145C37.8919 27.9339 37.7777 28.0481 37.6589 28.1564L36.666 27.6852C36.4744 27.594 36.248 27.6019 36.0616 27.7069C35.786 27.863 35.4887 27.9851 35.1783 28.0711C34.9722 28.1282 34.8068 28.2824 34.7347 28.4839L34.3652 29.524C34.2064 29.5325 34.0449 29.5325 33.8861 29.524L33.5167 28.4839C33.4451 28.2824 33.2797 28.1282 33.0737 28.0711C32.762 27.9851 32.4647 27.8624 32.1897 27.7069C32.004 27.6025 31.7789 27.5946 31.5853 27.6852L30.5924 28.1564C30.473 28.0475 30.3588 27.9333 30.2505 27.8145L30.7217 26.8216C30.8136 26.6286 30.805 26.4029 30.7 26.2172C30.5438 25.9416 30.4218 25.6443 30.3358 25.3339C30.2787 25.1278 30.1245 24.9624 29.923 24.8902L28.8829 24.5208C28.8776 24.4414 28.875 24.362 28.875 24.2812C28.875 24.2005 28.8776 24.1205 28.8816 24.0417L29.9217 23.6716C30.1232 23.6001 30.2774 23.4347 30.3338 23.2286C30.4205 22.9162 30.5432 22.6196 30.6987 22.3446C30.8037 22.1589 30.8116 21.9332 30.7204 21.7402L30.2492 20.7473C30.3581 20.6279 30.4723 20.5137 30.5911 20.4054L31.584 20.8766C31.7769 20.9685 32.0027 20.9606 32.1884 20.855C32.464 20.6988 32.7613 20.5767 33.0717 20.4907C33.2778 20.4337 33.4432 20.2794 33.5153 20.078L33.8848 19.0378C34.0436 19.0293 34.2051 19.0293 34.3639 19.0378L34.7333 20.078C34.8049 20.2794 34.9703 20.4337 35.1763 20.4907C35.488 20.5767 35.7853 20.6994 36.0603 20.855C36.2467 20.9606 36.4717 20.9685 36.6647 20.8766L37.6576 20.4054C37.777 20.5144 37.8912 20.6286 37.9995 20.7473L37.5283 21.7402C37.4364 21.9332 37.445 22.1589 37.55 22.3446C37.7062 22.6203 37.8282 22.9176 37.9142 23.228C37.9713 23.434 38.1255 23.5994 38.327 23.6716L39.3671 24.0411C39.3724 24.1211 39.375 24.2005 39.375 24.2812C39.375 24.362 39.3724 24.4414 39.3684 24.5208Z" fill="url(#paint2_linear)"/>
<path d="M14.4375 34.7812C18.4177 34.7812 21.6562 31.5427 21.6562 27.5625C21.6562 23.5823 18.4177 20.3438 14.4375 20.3438C10.4573 20.3438 7.21875 23.5823 7.21875 27.5625C7.21875 31.5427 10.4573 34.7812 14.4375 34.7812ZM14.4375 21.6562C17.6938 21.6562 20.3438 24.3062 20.3438 27.5625C20.3438 30.8188 17.6938 33.4688 14.4375 33.4688C11.1812 33.4688 8.53125 30.8188 8.53125 27.5625C8.53125 24.3062 11.1812 21.6562 14.4375 21.6562Z" fill="url(#paint3_linear)"/>
<path d="M1.32715 16.6418L2.33515 17.4825C5.34012 13.879 9.75077 11.8125 14.4377 11.8125C14.7717 11.8125 15.1051 11.8315 15.4385 11.8525L14.63 12.661L15.5579 13.5889L17.5267 11.6202C17.7833 11.3636 17.7833 10.9489 17.5267 10.6923L15.5579 8.72351L14.63 9.65145L15.5218 10.5433C15.1609 10.5203 14.7993 10.5 14.4377 10.5C9.36096 10.5 4.58215 12.7384 1.32715 16.6418Z" fill="url(#paint4_linear)"/>
<path d="M28.2188 5.90625C26.4095 5.90625 24.9375 7.37822 24.9375 9.1875C24.9375 10.9968 26.4095 12.4688 28.2188 12.4688C30.028 12.4688 31.5 10.9968 31.5 9.1875C31.5 7.37822 30.028 5.90625 28.2188 5.90625ZM28.2188 11.1562C27.1333 11.1562 26.25 10.2729 26.25 9.1875C26.25 8.10206 27.1333 7.21875 28.2188 7.21875C29.3042 7.21875 30.1875 8.10206 30.1875 9.1875C30.1875 10.2729 29.3042 11.1562 28.2188 11.1562Z" fill="url(#paint5_linear)"/>
<path d="M34.125 21.6562C32.6773 21.6562 31.5 22.8336 31.5 24.2812C31.5 25.7289 32.6773 26.9062 34.125 26.9062C35.5727 26.9062 36.75 25.7289 36.75 24.2812C36.75 22.8336 35.5727 21.6562 34.125 21.6562ZM34.125 25.5938C33.4012 25.5938 32.8125 25.0051 32.8125 24.2812C32.8125 23.5574 33.4012 22.9688 34.125 22.9688C34.8488 22.9688 35.4375 23.5574 35.4375 24.2812C35.4375 25.0051 34.8488 25.5938 34.125 25.5938Z" fill="url(#paint6_linear)"/>
<path d="M40.1591 3.29437L36.8779 2.63812C36.5209 2.56593 36.1763 2.79759 36.1055 3.15262L35.4492 6.43387L36.7361 6.69178L37.0898 4.92515C37.7257 6.24815 38.0617 7.70634 38.0617 9.1875C38.0617 11.4502 37.3149 13.5778 35.9027 15.3398L36.9271 16.1608C38.5054 14.1914 39.3742 11.7154 39.3742 9.1875C39.3742 7.46878 38.9772 5.77434 38.2219 4.24528L39.9019 4.58128L40.1591 3.29437Z" fill="url(#paint7_linear)"/>
<defs>
<linearGradient id="paint0_linear" x1="8.42188" y1="15.5408" x2="27.2017" y2="19.8606" gradientUnits="userSpaceOnUse">
<stop stop-color="#FFAA32"/>
<stop offset="1" stop-color="#FF7A00"/>
</linearGradient>
<linearGradient id="paint1_linear" x1="24.6094" y1="1.96907" x2="35.8777" y2="4.5601" gradientUnits="userSpaceOnUse">
<stop stop-color="#FFAA32"/>
<stop offset="1" stop-color="#FF7A00"/>
</linearGradient>
<linearGradient id="paint2_linear" x1="31.1172" y1="18.2661" x2="40.5074" y2="20.4253" gradientUnits="userSpaceOnUse">
<stop stop-color="#FFAA32"/>
<stop offset="1" stop-color="#FF7A00"/>
</linearGradient>
<linearGradient id="paint3_linear" x1="11.1289" y1="20.9453" x2="21.4582" y2="23.3204" gradientUnits="userSpaceOnUse">
<stop stop-color="#FFAA32"/>
<stop offset="1" stop-color="#FF7A00"/>
</linearGradient>
<linearGradient id="paint4_linear" x1="5.76664" y1="9.08847" x2="16.1852" y2="13.5717" gradientUnits="userSpaceOnUse">
<stop stop-color="#FFAA32"/>
<stop offset="1" stop-color="#FF7A00"/>
</linearGradient>
<linearGradient id="paint5_linear" x1="26.7148" y1="6.17969" x2="31.41" y2="7.25926" gradientUnits="userSpaceOnUse">
<stop stop-color="#FFAA32"/>
<stop offset="1" stop-color="#FF7A00"/>
</linearGradient>
<linearGradient id="paint6_linear" x1="32.9219" y1="21.875" x2="36.678" y2="22.7387" gradientUnits="userSpaceOnUse">
<stop stop-color="#FFAA32"/>
<stop offset="1" stop-color="#FF7A00"/>
</linearGradient>
<linearGradient id="paint7_linear" x1="36.7248" y1="3.18893" x2="40.2501" y2="3.47098" gradientUnits="userSpaceOnUse">
<stop stop-color="#FFAA32"/>
<stop offset="1" stop-color="#FF7A00"/>
</linearGradient>
</defs>
</svg>
