<svg width="42" height="42" viewBox="0 0 42 42" fill="none" xmlns="http://www.w3.org/2000/svg">
<path d="M30.0636 4.80184C27.9377 2.79876 24.295 2.34161 20.9996 5.63699C17.7091 2.34484 14.0616 2.79876 11.9357 4.80022C9.45934 7.13122 9.41572 11.0308 11.8033 13.4183L20.9996 22.6163L30.196 13.4199C32.5836 11.0324 32.54 7.13284 30.0636 4.80184ZM29.054 12.2762L20.9996 20.3321L12.9453 12.2778C11.1975 10.5284 11.2314 7.68368 13.0439 5.97784C13.816 5.24768 14.8499 4.84707 15.9548 4.84707C18.268 4.84707 19.3083 6.22984 20.9996 7.92114C22.6457 6.27507 23.7054 4.84707 26.0445 4.84707C27.1494 4.84707 28.1833 5.24768 28.957 5.97622C30.7646 7.67884 30.8066 10.5235 29.054 12.2762Z" fill="url(#paint0_linear)"/>
<path d="M39.239 4.84708C37.8159 4.84708 36.635 5.91323 36.4929 7.32831L35.4703 17.4261C34.9776 17.5311 34.5253 17.7702 34.1748 18.1207L26.0155 25.7162C24.8928 26.7388 24.2418 28.1975 24.2305 29.7224V38.7702H33.9228V34.512C33.9228 33.8545 34.199 33.2149 34.6998 32.7399L40.8302 26.553C41.5845 25.7905 41.9997 24.7809 41.9997 23.7099V7.60777C41.9997 6.08608 40.7607 4.84708 39.239 4.84708ZM40.3843 23.7099C40.3843 24.3528 40.1355 24.9586 39.6816 25.4174L33.5706 31.5849C32.7678 32.3442 32.3074 33.4103 32.3074 34.512V37.1548H25.8459V29.7321C25.8539 28.6611 26.3111 27.6353 27.1107 26.9084L35.2959 19.2854C35.5155 19.0657 35.816 18.9575 36.1342 18.9898C36.3103 19.0059 36.5639 19.0689 36.7804 19.2854C36.9791 19.4841 37.0889 19.749 37.0889 20.0285C37.0889 20.3079 36.9775 20.5728 36.8079 20.7441L30.5062 26.4593L31.5918 27.6547L37.9225 21.912C38.4265 21.408 38.7043 20.7392 38.7043 20.0268C38.7043 19.3145 38.4281 18.6457 37.9241 18.1433C37.6785 17.8945 37.3926 17.7039 37.0792 17.5731L38.0985 7.49308C38.1583 6.90508 38.6494 6.46246 39.239 6.46246C39.8706 6.46246 40.3843 6.97615 40.3843 7.60777V23.7099Z" fill="url(#paint1_linear)"/>
<path d="M15.9842 25.7162L7.82492 18.1207C7.47438 17.7702 7.02208 17.5295 6.52938 17.4261L5.50685 7.32831C5.36469 5.91323 4.18385 4.84708 2.76069 4.84708C1.239 4.84708 0 6.08608 0 7.60777V23.7099C0 24.7809 0.415154 25.7905 1.16954 26.5514L7.29992 32.7383C7.80069 33.2132 8.07692 33.8545 8.07692 34.512V38.7702H17.7692V29.7224C17.7595 28.1975 17.1069 26.7404 15.9842 25.7162ZM16.1538 37.1548H9.69231V34.512C9.69231 33.4119 9.23192 32.3442 8.42908 31.5849L2.31808 25.4174C1.86415 24.9586 1.61538 24.3528 1.61538 23.7099V7.60777C1.61538 6.97615 2.12908 6.46246 2.76069 6.46246C3.35031 6.46246 3.84138 6.90508 3.90115 7.48985L4.92046 17.5698C4.60708 17.7023 4.32115 17.8929 4.07562 18.1401C3.57323 18.6425 3.29538 19.3112 3.29538 20.0236C3.29538 20.736 3.57323 21.4048 4.07723 21.9088L10.4079 27.6515L11.4935 26.4561L5.19185 20.7408C5.02062 20.5696 4.91077 20.3063 4.91077 20.0252C4.91077 19.7442 5.02062 19.4808 5.21931 19.2822C5.43415 19.0657 5.68938 19.0027 5.86546 18.9865C6.18531 18.9558 6.48415 19.0625 6.70385 19.2822L14.889 26.9052C15.6886 27.6321 16.1458 28.6579 16.1538 29.7289V37.1548Z" fill="url(#paint2_linear)"/>
<defs>
<linearGradient id="paint0_linear" x1="15.9787" y1="4.03771" x2="31.4386" y2="8.05512" gradientUnits="userSpaceOnUse">
<stop stop-color="#FFAA32"/>
<stop offset="1" stop-color="#FF7A00"/>
</linearGradient>
<linearGradient id="paint1_linear" x1="29.043" y1="6.26054" x2="42.2367" y2="7.84961" gradientUnits="userSpaceOnUse">
<stop stop-color="#FFAA32"/>
<stop offset="1" stop-color="#FF7A00"/>
</linearGradient>
<linearGradient id="paint2_linear" x1="4.8125" y1="6.26054" x2="18.0062" y2="7.84961" gradientUnits="userSpaceOnUse">
<stop stop-color="#FFAA32"/>
<stop offset="1" stop-color="#FF7A00"/>
</linearGradient>
</defs>
</svg>
