<svg width="42" height="42" viewBox="0 0 42 42" fill="none" xmlns="http://www.w3.org/2000/svg">
<path d="M24.6327 39.2938H17.8434C17.5473 39.294 17.2543 39.2341 16.9819 39.1179C16.7096 39.0017 16.4635 38.8316 16.2587 38.6178C16.0539 38.4039 15.8945 38.1508 15.7901 37.8737C15.6858 37.5966 15.6386 37.3012 15.6515 37.0054V32.4393C15.6515 32.2888 15.7113 32.1444 15.8177 32.038C15.9242 31.9316 16.0685 31.8718 16.2191 31.8718C16.3696 31.8718 16.5139 31.9316 16.6204 32.038C16.7268 32.1444 16.7866 32.2888 16.7866 32.4393V37.0054C16.7744 37.1519 16.7926 37.2993 16.8401 37.4384C16.8876 37.5775 16.9634 37.7053 17.0626 37.8137C17.1619 37.9221 17.2825 38.0088 17.4168 38.0684C17.5512 38.128 17.6965 38.1591 17.8434 38.1598H24.6327C24.9673 38.169 25.2939 38.0574 25.5529 37.8454C25.8119 37.6334 25.9859 37.3352 26.0431 37.0054V32.4393C26.0431 32.2888 26.1029 32.1444 26.2093 32.038C26.3158 31.9316 26.4601 31.8718 26.6107 31.8718C26.7612 31.8718 26.9055 31.9316 27.012 32.038C27.1184 32.1444 27.1782 32.2888 27.1782 32.4393V37.0054C27.1265 37.6398 26.834 38.2304 26.3606 38.6559C25.8873 39.0815 25.269 39.3097 24.6327 39.2938Z" fill="url(#paint0_linear)"/>
<path d="M26.1291 33.0069H16.7006C16.4343 33.0053 16.1768 32.9105 15.9731 32.7389C15.7694 32.5673 15.6322 32.3298 15.5854 32.0676C15.1096 29.8374 14.0297 27.7811 12.4637 26.1234C10.9599 24.4039 9.98322 22.2877 9.65036 20.0278C9.31751 17.7678 9.64261 15.4598 10.5868 13.3798C11.531 11.2997 13.0543 9.53564 14.9746 8.29844C16.8948 7.06125 19.1308 6.40332 21.4151 6.40332C23.6994 6.40332 25.9354 7.06125 27.8557 8.29844C29.776 9.53564 31.2993 11.2997 32.2434 13.3798C33.1876 15.4598 33.5127 17.7678 33.1799 20.0278C32.847 22.2877 31.8703 24.4039 30.3665 26.1234C28.8 27.7809 27.7195 29.8373 27.2432 32.0676C27.1964 32.3296 27.0594 32.567 26.8559 32.7386C26.6524 32.9101 26.3952 33.0051 26.1291 33.0069ZM21.4075 7.54355C19.3424 7.54421 17.3211 8.13956 15.5854 9.25844C13.8497 10.3773 12.4729 11.9724 11.6196 13.8529C10.7664 15.7335 10.4727 17.82 10.7738 19.863C11.0748 21.9061 11.9579 23.8192 13.3174 25.3737C15.02 27.1844 16.1909 29.4291 16.7018 31.8615L26.1234 31.8718C26.6361 29.436 27.8089 27.1882 29.5135 25.3742C30.8337 23.8647 31.7055 22.016 32.0303 20.0371C32.3551 18.0581 32.12 16.0277 31.3515 14.1754C30.583 12.323 29.3117 10.7225 27.6814 9.55471C26.051 8.3869 24.1266 7.69834 22.1254 7.56682C21.8855 7.55168 21.6462 7.54393 21.4075 7.54355Z" fill="url(#paint1_linear)"/>
<path d="M21.4143 41.3598C20.7299 41.3588 20.0737 41.0863 19.5899 40.6022C19.106 40.1181 18.8338 39.4619 18.833 38.7774C18.8313 38.6216 18.8891 38.4711 18.9946 38.3565C19.1 38.2418 19.2452 38.1717 19.4006 38.1605H23.4303C23.5809 38.1605 23.7252 38.2203 23.8317 38.3267C23.9381 38.4331 23.9979 38.5775 23.9979 38.728C24.0026 39.0709 23.9394 39.4113 23.8118 39.7296C23.6843 40.0479 23.4949 40.3377 23.2547 40.5824C23.0145 40.8271 22.7282 41.0218 22.4123 41.1553C22.0964 41.2887 21.7572 41.3582 21.4143 41.3598ZM20.0641 39.2956C20.1689 39.5689 20.3541 39.8039 20.5953 39.9697C20.8364 40.1355 21.1222 40.2243 21.4149 40.2243C21.7076 40.2243 21.9934 40.1355 22.2345 39.9697C22.4757 39.8039 22.6609 39.5689 22.7657 39.2956H20.0641Z" fill="url(#paint2_linear)"/>
<path d="M15.4378 35.5065C15.2921 35.5065 15.1521 35.4505 15.0466 35.3502C14.941 35.2498 14.8781 35.1128 14.8708 34.9673C14.8635 34.8219 14.9124 34.6792 15.0074 34.5688C15.1023 34.4584 15.2361 34.3887 15.381 34.3742L27.2471 33.1585C27.3225 33.1485 27.3991 33.1538 27.4724 33.174C27.5457 33.1942 27.6141 33.2289 27.6737 33.2761C27.7333 33.3233 27.7829 33.382 27.8194 33.4487C27.8559 33.5154 27.8786 33.5887 27.8862 33.6643C27.8938 33.74 27.8861 33.8164 27.8636 33.889C27.8412 33.9616 27.8043 34.029 27.7553 34.0871C27.7063 34.1452 27.6461 34.1929 27.5783 34.2273C27.5105 34.2617 27.4365 34.2821 27.3606 34.2873L15.4945 35.5031C15.4757 35.5053 15.4567 35.5064 15.4378 35.5065Z" fill="url(#paint3_linear)"/>
<path d="M15.5254 37.8386C15.3748 37.8461 15.2275 37.7935 15.1157 37.6924C15.004 37.5913 14.9369 37.4499 14.9294 37.2994C14.9219 37.1488 14.9745 37.0015 15.0756 36.8897C15.1767 36.778 15.3181 36.7109 15.4686 36.7034L27.2473 35.4968C27.3227 35.4868 27.3993 35.4921 27.4726 35.5123C27.5459 35.5325 27.6144 35.5673 27.674 35.6144C27.7336 35.6616 27.7831 35.7203 27.8196 35.787C27.8561 35.8537 27.8788 35.927 27.8864 36.0027C27.894 36.0783 27.8863 36.1547 27.8639 36.2273C27.8414 36.2999 27.8045 36.3673 27.7555 36.4254C27.7065 36.4835 27.6463 36.5312 27.5785 36.5656C27.5107 36.6 27.4367 36.6204 27.3609 36.6257L15.5833 37.8357C15.564 37.8378 15.5447 37.8387 15.5254 37.8386Z" fill="url(#paint4_linear)"/>
<path d="M21.3703 5.08994C21.2198 5.08994 21.0754 5.03014 20.969 4.9237C20.8625 4.81726 20.8027 4.6729 20.8027 4.52237V2.19534C20.8027 2.04482 20.8625 1.90045 20.969 1.79401C21.0754 1.68757 21.2198 1.62778 21.3703 1.62778C21.5208 1.62778 21.6652 1.68757 21.7716 1.79401C21.8781 1.90045 21.9379 2.04482 21.9379 2.19534V4.52237C21.9379 4.6729 21.8781 4.81726 21.7716 4.9237C21.6652 5.03014 21.5208 5.08994 21.3703 5.08994Z" fill="url(#paint5_linear)"/>
<path d="M14.5529 6.94077C14.453 6.94097 14.3549 6.91483 14.2684 6.86501C14.1819 6.81519 14.1101 6.74343 14.0602 6.65699L12.8984 4.64326C12.8243 4.51297 12.8048 4.35867 12.844 4.21403C12.8833 4.06939 12.9782 3.94615 13.108 3.87121C13.2378 3.79627 13.392 3.77571 13.5369 3.81402C13.6818 3.85233 13.8056 3.9464 13.8814 4.07569L15.0438 6.08942C15.0936 6.17566 15.1198 6.27348 15.1198 6.37306C15.1199 6.47264 15.0937 6.57047 15.0439 6.65673C14.9942 6.743 14.9226 6.81465 14.8364 6.86451C14.7502 6.91437 14.6524 6.94067 14.5529 6.94077Z" fill="url(#paint6_linear)"/>
<path d="M9.57252 11.9524C9.47287 11.9526 9.37494 11.9264 9.28874 11.8764L7.27615 10.7134C7.20924 10.6774 7.15025 10.6283 7.10266 10.5691C7.05508 10.5099 7.01986 10.4417 6.99912 10.3686C6.97837 10.2955 6.9725 10.219 6.98187 10.1436C6.99124 10.0682 7.01565 9.9955 7.05365 9.92971C7.09166 9.86392 7.14248 9.80644 7.20312 9.76066C7.26375 9.71488 7.33296 9.68174 7.40664 9.66321C7.48032 9.64467 7.55697 9.64112 7.63205 9.65276C7.70713 9.66439 7.7791 9.69099 7.84371 9.73096L9.85688 10.8933C9.96507 10.9558 10.0496 11.0522 10.0974 11.1677C10.1452 11.2831 10.1536 11.4111 10.1213 11.5317C10.089 11.6524 10.0177 11.7591 9.91859 11.8351C9.81947 11.9112 9.69803 11.9524 9.57309 11.9524H9.57252Z" fill="url(#paint7_linear)"/>
<path d="M7.76764 18.7819H5.44062C5.29009 18.7819 5.14572 18.7221 5.03928 18.6157C4.93284 18.5092 4.87305 18.3649 4.87305 18.2144C4.87305 18.0638 4.93284 17.9195 5.03928 17.813C5.14572 17.7066 5.29009 17.6468 5.44062 17.6468H7.76764C7.91817 17.6468 8.06254 17.7066 8.16898 17.813C8.27542 17.9195 8.33521 18.0638 8.33521 18.2144C8.33521 18.3649 8.27542 18.5092 8.16898 18.6157C8.06254 18.7221 7.91817 18.7819 7.76764 18.7819Z" fill="url(#paint8_linear)"/>
<path d="M7.60563 26.7619C7.48069 26.7619 7.35925 26.7207 7.26013 26.6446C7.16101 26.5686 7.08976 26.462 7.05743 26.3413C7.02509 26.2206 7.03348 26.0926 7.08128 25.9772C7.12909 25.8618 7.21365 25.7653 7.32184 25.7029L9.33558 24.5405C9.40016 24.5032 9.47145 24.479 9.54538 24.4693C9.61931 24.4596 9.69443 24.4645 9.76645 24.4839C9.83847 24.5032 9.90598 24.5365 9.96512 24.5819C10.0243 24.6273 10.0739 24.6839 10.1112 24.7485C10.1484 24.8131 10.1726 24.8844 10.1823 24.9583C10.192 25.0322 10.1871 25.1073 10.1678 25.1794C10.1485 25.2514 10.1152 25.3189 10.0697 25.378C10.0243 25.4372 9.96773 25.4868 9.90315 25.5241L7.88941 26.6865C7.80308 26.7361 7.70521 26.7621 7.60563 26.7619Z" fill="url(#paint9_linear)"/>
<path d="M28.2769 6.94077C28.1774 6.94067 28.0796 6.91437 27.9934 6.86451C27.9072 6.81465 27.8356 6.743 27.7859 6.65673C27.7361 6.57047 27.7099 6.47264 27.71 6.37306C27.71 6.27348 27.7362 6.17566 27.786 6.08942L28.9461 4.07569C29.0219 3.9464 29.1458 3.85233 29.2907 3.81402C29.4356 3.77571 29.5897 3.79627 29.7195 3.87121C29.8493 3.94615 29.9442 4.06939 29.9835 4.21403C30.0227 4.35867 30.0032 4.51297 29.9291 4.64326L28.7668 6.65698C28.7171 6.74301 28.6457 6.8145 28.5598 6.8643C28.4738 6.9141 28.3763 6.94047 28.2769 6.94077Z" fill="url(#paint10_linear)"/>
<path d="M33.2589 11.9524C33.134 11.9524 33.0126 11.9112 32.9135 11.8351C32.8143 11.7591 32.7431 11.6524 32.7107 11.5317C32.6784 11.4111 32.6868 11.2831 32.7346 11.1677C32.7824 11.0522 32.867 10.9558 32.9752 10.8933L34.9883 9.73096C35.0529 9.69099 35.1249 9.66439 35.2 9.65276C35.2751 9.64112 35.3517 9.64467 35.4254 9.66321C35.4991 9.68174 35.5683 9.71488 35.6289 9.76066C35.6896 9.80644 35.7404 9.86392 35.7784 9.92971C35.8164 9.9955 35.8408 10.0682 35.8502 10.1436C35.8595 10.219 35.8537 10.2955 35.8329 10.3686C35.8122 10.4417 35.777 10.5099 35.7294 10.5691C35.6818 10.6283 35.6228 10.6774 35.5559 10.7134L33.5427 11.8764C33.4565 11.9264 33.3586 11.9526 33.2589 11.9524Z" fill="url(#paint11_linear)"/>
<path d="M37.3868 18.7819H35.0598C34.9092 18.7819 34.7649 18.7221 34.6584 18.6157C34.552 18.5092 34.4922 18.3649 34.4922 18.2144C34.4922 18.0638 34.552 17.9195 34.6584 17.813C34.7649 17.7066 34.9092 17.6468 35.0598 17.6468H37.3868C37.5373 17.6468 37.6817 17.7066 37.7881 17.813C37.8946 17.9195 37.9544 18.0638 37.9544 18.2144C37.9544 18.3649 37.8946 18.5092 37.7881 18.6157C37.6817 18.7221 37.5373 18.7819 37.3868 18.7819Z" fill="url(#paint12_linear)"/>
<path d="M35.2249 26.7619C35.1254 26.7619 35.0275 26.7359 34.9411 26.6865L32.9285 25.5241C32.864 25.4868 32.8074 25.4372 32.7619 25.378C32.7165 25.3189 32.6832 25.2514 32.6639 25.1794C32.6446 25.1073 32.6397 25.0322 32.6494 24.9583C32.6591 24.8844 32.6833 24.8131 32.7205 24.7485C32.7578 24.6839 32.8074 24.6273 32.8666 24.5819C32.9257 24.5365 32.9932 24.5032 33.0652 24.4839C33.1373 24.4645 33.2124 24.4596 33.2863 24.4693C33.3602 24.479 33.4315 24.5032 33.4961 24.5405L35.5087 25.7029C35.6169 25.7653 35.7015 25.8618 35.7493 25.9772C35.7971 26.0926 35.8055 26.2206 35.7731 26.3413C35.7408 26.462 35.6695 26.5686 35.5704 26.6446C35.4713 26.7207 35.3499 26.7619 35.2249 26.7619Z" fill="url(#paint13_linear)"/>
<path d="M18.9689 33.0069C18.8409 33.0068 18.7167 32.9634 18.6164 32.8837C18.5162 32.8041 18.4458 32.6929 18.4167 32.5682L15.6651 20.7622C15.6419 20.6624 15.6462 20.5581 15.6775 20.4604C15.7088 20.3628 15.7659 20.2754 15.8429 20.2077C15.9198 20.1399 16.0137 20.0943 16.1145 20.0756C16.2153 20.0569 16.3193 20.0659 16.4155 20.1016L18.9877 21.0568L21.1212 19.7673C21.2098 19.7137 21.3113 19.6854 21.4149 19.6854C21.5184 19.6854 21.62 19.7137 21.7086 19.7673L23.8426 21.0568L26.4126 20.1016C26.5087 20.0659 26.6127 20.0569 26.7135 20.0756C26.8143 20.0943 26.9082 20.1399 26.9852 20.2077C27.0621 20.2754 27.1193 20.3628 27.1506 20.4604C27.1819 20.5581 27.1861 20.6624 27.1629 20.7622L24.4136 32.5676C24.3794 32.7142 24.2884 32.8413 24.1606 32.9208C24.0328 33.0003 23.8786 33.0258 23.732 32.9916C23.5854 32.9574 23.4583 32.8664 23.3788 32.7386C23.2993 32.6107 23.2738 32.4566 23.308 32.3099L25.8178 21.5324L23.9811 22.2135C23.9009 22.243 23.8152 22.2541 23.7301 22.246C23.645 22.238 23.5629 22.211 23.4896 22.1669L21.4146 20.9166L19.3407 22.1698C19.2676 22.2141 19.1854 22.2412 19.1003 22.2493C19.0152 22.2574 18.9293 22.2461 18.8492 22.2163L17.012 21.5352L19.5246 32.3105C19.5586 32.4571 19.533 32.6112 19.4534 32.739C19.3737 32.8667 19.2467 32.9575 19.1001 32.9916C19.0571 33.0016 19.0131 33.0067 18.9689 33.0069Z" fill="url(#paint14_linear)"/>
<defs>
<linearGradient id="paint0_linear" x1="18.7718" y1="32.1811" x2="26.4739" y2="34.9316" gradientUnits="userSpaceOnUse">
<stop stop-color="#FFAA32"/>
<stop offset="1" stop-color="#FF7A00"/>
</linearGradient>
<linearGradient id="paint1_linear" x1="15.9648" y1="7.5118" x2="33.1539" y2="11.0452" gradientUnits="userSpaceOnUse">
<stop stop-color="#FFAA32"/>
<stop offset="1" stop-color="#FF7A00"/>
</linearGradient>
<linearGradient id="paint2_linear" x1="20.2319" y1="38.2938" x2="23.6515" y2="39.5632" gradientUnits="userSpaceOnUse">
<stop stop-color="#FFAA32"/>
<stop offset="1" stop-color="#FF7A00"/>
</linearGradient>
<linearGradient id="paint3_linear" x1="18.3961" y1="33.2516" x2="22.1411" y2="38.0162" gradientUnits="userSpaceOnUse">
<stop stop-color="#FFAA32"/>
<stop offset="1" stop-color="#FF7A00"/>
</linearGradient>
<linearGradient id="paint4_linear" x1="18.4389" y1="35.5897" x2="22.177" y2="40.3353" gradientUnits="userSpaceOnUse">
<stop stop-color="#FFAA32"/>
<stop offset="1" stop-color="#FF7A00"/>
</linearGradient>
<linearGradient id="paint5_linear" x1="21.1102" y1="1.77203" x2="21.9604" y2="1.83613" gradientUnits="userSpaceOnUse">
<stop stop-color="#FFAA32"/>
<stop offset="1" stop-color="#FF7A00"/>
</linearGradient>
<linearGradient id="paint6_linear" x1="13.4459" y1="3.92623" x2="15.1278" y2="4.20846" gradientUnits="userSpaceOnUse">
<stop stop-color="#FFAA32"/>
<stop offset="1" stop-color="#FF7A00"/>
</linearGradient>
<linearGradient id="paint7_linear" x1="7.83421" y1="9.74216" x2="10.0014" y2="10.4256" gradientUnits="userSpaceOnUse">
<stop stop-color="#FFAA32"/>
<stop offset="1" stop-color="#FF7A00"/>
</linearGradient>
<linearGradient id="paint8_linear" x1="5.81072" y1="17.6941" x2="7.55889" y2="18.9201" gradientUnits="userSpaceOnUse">
<stop stop-color="#FFAA32"/>
<stop offset="1" stop-color="#FF7A00"/>
</linearGradient>
<linearGradient id="paint9_linear" x1="7.89096" y1="24.5602" x2="10.0488" y2="25.2403" gradientUnits="userSpaceOnUse">
<stop stop-color="#FFAA32"/>
<stop offset="1" stop-color="#FF7A00"/>
</linearGradient>
<linearGradient id="paint10_linear" x1="28.3311" y1="3.92623" x2="30.0114" y2="4.20791" gradientUnits="userSpaceOnUse">
<stop stop-color="#FFAA32"/>
<stop offset="1" stop-color="#FF7A00"/>
</linearGradient>
<linearGradient id="paint11_linear" x1="33.5481" y1="9.74216" x2="35.7152" y2="10.4256" gradientUnits="userSpaceOnUse">
<stop stop-color="#FFAA32"/>
<stop offset="1" stop-color="#FF7A00"/>
</linearGradient>
<linearGradient id="paint12_linear" x1="35.4299" y1="17.6941" x2="37.178" y2="18.9201" gradientUnits="userSpaceOnUse">
<stop stop-color="#FFAA32"/>
<stop offset="1" stop-color="#FF7A00"/>
</linearGradient>
<linearGradient id="paint13_linear" x1="33.4971" y1="24.5602" x2="35.6542" y2="25.2398" gradientUnits="userSpaceOnUse">
<stop stop-color="#FFAA32"/>
<stop offset="1" stop-color="#FF7A00"/>
</linearGradient>
<linearGradient id="paint14_linear" x1="18.7724" y1="20.2404" x2="27.1249" y2="21.9023" gradientUnits="userSpaceOnUse">
<stop stop-color="#FFAA32"/>
<stop offset="1" stop-color="#FF7A00"/>
</linearGradient>
</defs>
</svg>
