<svg width="42" height="42" viewBox="0 0 42 42" fill="none" xmlns="http://www.w3.org/2000/svg">
<g clip-path="url(#clip0)">
<path d="M23.2944 0C14.6151 0 7.55429 7.06076 7.55429 15.74V16.2422L3.02495 24.6536C2.85576 24.9679 2.99739 25.372 3.32488 25.5123L7.55429 27.3247V36.1241C7.55429 36.4648 7.83018 36.7407 8.17081 36.7407H16.8507L18.0947 41.5392C18.1815 41.874 18.5381 42.0733 18.8688 41.9749C19.1822 41.8817 19.37 41.5456 19.2883 41.2299L17.9245 35.9694C17.854 35.6976 17.6086 35.5076 17.3275 35.5076H8.787V26.9184C8.787 26.672 8.64024 26.4489 8.41338 26.3519L4.43005 24.6446L8.7133 16.6898C8.76169 16.6001 8.787 16.4995 8.787 16.3976V15.74C8.787 7.74073 15.295 1.23271 23.2944 1.23271C31.2934 1.23271 37.8014 7.74073 37.8014 15.74C37.8014 20.3206 35.7041 24.5372 32.0477 27.308C31.8432 27.4631 31.7561 27.7284 31.8288 27.9745L32.9622 31.7992C33.059 32.1258 33.4018 32.3119 33.7283 32.2155C34.0549 32.1187 34.241 31.7755 34.1446 31.449L33.1304 28.0271C34.8758 26.6271 36.3242 24.8484 37.3348 22.8601C38.4624 20.6414 39.0344 18.2458 39.0344 15.74C39.0344 7.06076 31.9733 0 23.2944 0V0Z" fill="url(#paint0_linear)"/>
<path d="M34.9333 34.1109C34.8365 33.7847 34.4936 33.5988 34.1671 33.6949C33.8406 33.7917 33.6544 34.1349 33.7512 34.4611L35.8542 41.5597C35.9538 41.8949 36.3239 42.0817 36.6534 41.9647C36.9578 41.8567 37.1279 41.5183 37.0366 41.2094L34.9333 34.1109Z" fill="url(#paint1_linear)"/>
<path d="M29.8284 15.74C29.8284 12.1371 26.897 9.20575 23.2941 9.20575C19.6908 9.20575 16.7598 12.1371 16.7598 15.74C16.7598 18.1077 18.0095 20.2466 20.0474 21.4108V21.6992H20.0064C19.6658 21.6992 19.3899 21.975 19.3899 22.3157V23.6717H19.3486C19.0083 23.6717 18.7324 23.9476 18.7324 24.2883C18.7324 24.6289 19.0083 24.9048 19.3486 24.9048H19.3899V25.5623H19.3486C19.0083 25.5623 18.7324 25.8382 18.7324 26.1785C18.7324 26.5191 19.0083 26.795 19.3486 26.795H19.4344C19.6901 28.3318 21.0283 29.5075 22.6365 29.5075H23.9516C25.5599 29.5075 26.898 28.3318 27.1534 26.795H27.2393C27.5799 26.795 27.8558 26.5191 27.8558 26.1785C27.8558 25.8382 27.5799 25.5623 27.2393 25.5623H27.1982V24.9048H27.2393C27.5799 24.9048 27.8558 24.6289 27.8558 24.2883C27.8558 23.9476 27.5799 23.6717 27.2393 23.6717H27.1982V22.3157C27.1982 21.975 26.9223 21.6992 26.5817 21.6992H26.5407V21.4108C28.5784 20.2466 29.8284 18.1077 29.8284 15.74ZM23.9516 28.2745H22.6365C21.7111 28.2745 20.9299 27.6471 20.6953 26.795H25.8928C25.6582 27.6471 24.877 28.2745 23.9516 28.2745ZM25.9652 25.5623H20.6226V24.9048H25.9652V25.5623ZM20.6226 23.6717V22.9319H25.9652V23.6717H20.6226ZM23.9106 21.6992V17.6716H25.2667C25.6073 17.6716 25.8832 17.3957 25.8832 17.0551V15.0825C25.8832 14.7419 25.6073 14.466 25.2667 14.466C24.926 14.466 24.6501 14.7419 24.6501 15.0825V16.4386H21.9377V15.0825C21.9377 14.7419 21.6618 14.466 21.3215 14.466C20.9809 14.466 20.705 14.7419 20.705 15.0825V17.0551C20.705 17.3957 20.9809 17.6716 21.3215 17.6716H22.6776V21.6992H21.2801V21.0413C21.2801 20.8074 21.1478 20.5937 20.9382 20.4895C19.1214 19.5862 17.9925 17.7665 17.9925 15.74C17.9925 12.8167 20.3707 10.4385 23.2941 10.4385C26.2174 10.4385 28.5957 12.8167 28.5957 15.74C28.5957 17.7665 27.4668 19.5862 25.6499 20.4895C25.4403 20.5937 25.3077 20.8074 25.3077 21.0413V21.6992H23.9106Z" fill="url(#paint2_linear)"/>
<path d="M23.9108 7.84935V6.53429C23.9108 6.19398 23.6349 5.91809 23.2943 5.91809C22.9536 5.91809 22.6777 6.19398 22.6777 6.53429V7.84935C22.6777 8.18997 22.9536 8.46586 23.2943 8.46586C23.6349 8.46586 23.9108 8.18997 23.9108 7.84935Z" fill="url(#paint3_linear)"/>
<path d="M19.3499 9.52296C19.8174 9.52296 20.1157 9.00066 19.8834 8.59819L19.2255 7.45937C19.0554 7.16457 18.6782 7.06363 18.3838 7.23378C18.0886 7.40393 17.9877 7.78108 18.1578 8.07588C18.3754 8.45271 18.5882 8.83307 18.8109 9.2067C18.9253 9.39864 19.1233 9.52296 19.3499 9.52296Z" fill="url(#paint4_linear)"/>
<path d="M16.1521 12.3288C16.4668 12.5101 16.8799 12.3736 17.0253 12.0416C17.15 11.7577 17.0369 11.4158 16.7687 11.2607L15.6298 10.6032C15.3347 10.4331 14.9579 10.534 14.7877 10.8291C14.6176 11.1239 14.7185 11.5008 15.0133 11.6709L16.1521 12.3288Z" fill="url(#paint5_linear)"/>
<path d="M13.4717 15.7401C13.4717 16.0807 13.7476 16.3566 14.0882 16.3566H15.4033C15.7439 16.3566 16.0198 16.0807 16.0198 15.7401C16.0198 15.3994 15.7439 15.1235 15.4033 15.1235H14.0882C13.7479 15.1235 13.4717 15.3994 13.4717 15.7401Z" fill="url(#paint6_linear)"/>
<path d="M15.3219 20.9596C15.4264 20.9596 15.5325 20.9327 15.6296 20.8767L16.7684 20.2191C17.0632 20.049 17.1641 19.6721 16.994 19.3773C16.8238 19.0822 16.4467 18.9813 16.1519 19.1514L15.013 19.809C14.7836 19.9416 14.6628 20.2143 14.7186 20.4732C14.7794 20.7539 15.0348 20.9596 15.3219 20.9596Z" fill="url(#paint7_linear)"/>
<path d="M31.5755 19.809L30.4363 19.1514C30.1415 18.9813 29.7647 19.0822 29.5945 19.3773C29.4241 19.6721 29.5253 20.049 29.8201 20.2191L30.9589 20.8767C31.2733 21.0583 31.6866 20.9215 31.8321 20.5899C31.9565 20.306 31.8437 19.9641 31.5755 19.809Z" fill="url(#paint8_linear)"/>
<path d="M30.5684 15.7401C30.5684 16.0807 30.8443 16.3566 31.1849 16.3566H32.4999C32.8402 16.3566 33.1161 16.0807 33.1161 15.7401C33.1161 15.3994 32.8402 15.1235 32.4999 15.1235H31.1849C30.8443 15.1235 30.5684 15.3994 30.5684 15.7401Z" fill="url(#paint9_linear)"/>
<path d="M30.9587 10.6035C30.6844 10.7618 30.4105 10.9201 30.1362 11.0784C30.0311 11.1389 29.9247 11.1979 29.8205 11.2604C29.5825 11.4033 29.4591 11.6862 29.5331 11.9573C29.6382 12.3409 30.091 12.528 30.4361 12.3287L31.5752 11.6712C31.87 11.501 31.971 11.1239 31.8008 10.8291C31.6307 10.5343 31.2532 10.4333 30.9587 10.6035Z" fill="url(#paint10_linear)"/>
<path d="M27.2388 9.52296C27.4519 9.52296 27.6592 9.41241 27.7733 9.21471L28.4308 8.07588C28.6009 7.78108 28.5 7.40393 28.2052 7.23378C27.9104 7.06363 27.5333 7.16457 27.3631 7.45937L26.7056 8.59819C26.4733 9.00066 26.7716 9.52296 27.2388 9.52296Z" fill="url(#paint11_linear)"/>
</g>
<defs>
<linearGradient id="paint0_linear" x1="12.7251" y1="1.75" x2="38.8837" y2="6.91712" gradientUnits="userSpaceOnUse">
<stop stop-color="#FFAA32"/>
<stop offset="1" stop-color="#FF7A00"/>
</linearGradient>
<linearGradient id="paint1_linear" x1="34.629" y1="34.0167" x2="37.1205" y2="34.2461" gradientUnits="userSpaceOnUse">
<stop stop-color="#FFAA32"/>
<stop offset="1" stop-color="#FF7A00"/>
</linearGradient>
<linearGradient id="paint2_linear" x1="20.2992" y1="10.0517" x2="29.9324" y2="11.4775" gradientUnits="userSpaceOnUse">
<stop stop-color="#FFAA32"/>
<stop offset="1" stop-color="#FF7A00"/>
</linearGradient>
<linearGradient id="paint3_linear" x1="23.0117" y1="6.02425" x2="23.9291" y2="6.12634" gradientUnits="userSpaceOnUse">
<stop stop-color="#FFAA32"/>
<stop offset="1" stop-color="#FF7A00"/>
</linearGradient>
<linearGradient id="paint4_linear" x1="18.5867" y1="7.24995" x2="19.9633" y2="7.50201" gradientUnits="userSpaceOnUse">
<stop stop-color="#FFAA32"/>
<stop offset="1" stop-color="#FF7A00"/>
</linearGradient>
<linearGradient id="paint5_linear" x1="15.3472" y1="10.5993" x2="16.9958" y2="11.0751" gradientUnits="userSpaceOnUse">
<stop stop-color="#FFAA32"/>
<stop offset="1" stop-color="#FF7A00"/>
</linearGradient>
<linearGradient id="paint6_linear" x1="14.1618" y1="15.1749" x2="15.7277" y2="15.919" gradientUnits="userSpaceOnUse">
<stop stop-color="#FFAA32"/>
<stop offset="1" stop-color="#FF7A00"/>
</linearGradient>
<linearGradient id="paint7_linear" x1="15.3474" y1="19.1476" x2="16.9966" y2="19.6232" gradientUnits="userSpaceOnUse">
<stop stop-color="#FFAA32"/>
<stop offset="1" stop-color="#FF7A00"/>
</linearGradient>
<linearGradient id="paint8_linear" x1="30.1538" y1="19.1475" x2="31.8024" y2="19.6233" gradientUnits="userSpaceOnUse">
<stop stop-color="#FFAA32"/>
<stop offset="1" stop-color="#FF7A00"/>
</linearGradient>
<linearGradient id="paint9_linear" x1="31.2584" y1="15.1749" x2="32.8241" y2="15.9188" gradientUnits="userSpaceOnUse">
<stop stop-color="#FFAA32"/>
<stop offset="1" stop-color="#FF7A00"/>
</linearGradient>
<linearGradient id="paint10_linear" x1="30.1541" y1="10.5995" x2="31.8032" y2="11.0757" gradientUnits="userSpaceOnUse">
<stop stop-color="#FFAA32"/>
<stop offset="1" stop-color="#FF7A00"/>
</linearGradient>
<linearGradient id="paint11_linear" x1="27.1365" y1="7.24995" x2="28.5128" y2="7.50193" gradientUnits="userSpaceOnUse">
<stop stop-color="#FFAA32"/>
<stop offset="1" stop-color="#FF7A00"/>
</linearGradient>
<clipPath id="clip0">
<rect width="42" height="42" fill="white"/>
</clipPath>
</defs>
</svg>
