<svg width="66" height="66" viewBox="0 0 66 66" fill="none" xmlns="http://www.w3.org/2000/svg">
<g clip-path="url(#clip0)">
<path d="M51.398 19.1226L53.3622 16.4343C53.7468 16.6873 54.1828 16.8112 54.6159 16.8112C55.3226 16.8112 56.0204 16.486 56.4683 15.8729L57.111 14.9932C58.0732 13.7317 57.7692 11.7787 56.4691 10.8695L52.6118 8.0511C51.3505 7.08868 49.3973 7.39277 48.488 8.69292L47.8454 9.57258C47.4845 10.0665 47.3375 10.6715 47.4316 11.2759C47.5199 11.843 47.8124 12.3441 48.2557 12.702L46.2955 15.3846C43.5421 13.8246 40.4903 12.7331 37.2483 12.2197V8.06128H38.2133C39.4761 8.06128 40.5035 7.0339 40.5035 5.771V3.56761C40.5034 1.60037 38.9029 0 36.9358 0H29.0643C27.0972 0 25.4967 1.60037 25.4967 3.56761V5.77113C25.4967 7.03403 26.524 8.06141 27.7869 8.06141H28.7519V12.2206C25.5431 12.7298 22.4818 13.8086 19.7001 15.3785L17.7444 12.7022C18.1878 12.3442 18.4802 11.8431 18.5685 11.2761C18.6626 10.6716 18.5156 10.0667 18.1548 9.57271L17.5121 8.69305C16.6028 7.3929 14.6497 7.08868 13.3882 8.05123L9.5311 10.8694C8.23083 11.7787 7.927 13.7316 8.88915 14.9932L9.53188 15.873C9.97983 16.4861 10.6773 16.8113 11.3841 16.8113C11.8174 16.8113 12.2533 16.6874 12.638 16.4344L14.5925 19.1096C12.4736 21.0755 10.6518 23.3967 9.22456 26.0166C8.96856 26.4864 9.14194 27.0747 9.6118 27.3307C10.0817 27.5868 10.6699 27.4133 10.9259 26.9435C15.3347 18.8502 23.7932 13.8226 33 13.8226C46.8513 13.8226 58.12 25.0913 58.12 38.9426C58.12 44.975 55.9501 50.8069 52.01 55.3638C51.6601 55.7685 51.7045 56.3802 52.1092 56.7301C52.5121 57.0789 53.1245 57.0369 53.4755 56.6308C57.7199 51.7218 60.0574 45.44 60.0574 38.9425C60.0574 31.122 56.7208 24.0671 51.398 19.1226ZM49.4097 10.7156L50.0524 9.83593C50.3652 9.38966 51.0336 9.28447 51.4688 9.61551L55.3262 12.4338C55.7775 12.7635 55.8765 13.3989 55.5466 13.8503L54.904 14.73C54.7892 14.8871 54.5681 14.9214 54.4108 14.8068L49.4864 11.2088C49.3838 11.1338 49.3542 11.0322 49.3459 10.9782C49.3373 10.9242 49.3345 10.8183 49.4097 10.7156ZM49.8168 13.8494L51.7953 15.295L49.9277 17.8512C49.2916 17.3397 48.6322 16.8562 47.951 16.4027L49.8168 13.8494ZM27.4341 5.771V3.56761C27.4341 2.66875 28.1654 1.93746 29.0643 1.93746H36.9358C37.8347 1.93746 38.5659 2.66875 38.5659 3.56761V5.77113C38.5659 5.96578 38.4076 6.12408 38.213 6.12408H27.7871C27.5924 6.12395 27.4341 5.96565 27.4341 5.771ZM11.0962 14.73L10.4534 13.8503C10.1237 13.399 10.2226 12.7635 10.674 12.4338L14.5314 9.61551C14.9667 9.28447 15.6351 9.38979 15.9478 9.83593L16.5905 10.7157C16.705 10.9337 16.6891 11.0361 16.5137 11.2088L11.5892 14.8067C11.4322 14.9214 11.211 14.887 11.0962 14.73ZM14.2049 15.295L16.1834 13.8494L18.0424 16.3934C17.362 16.8447 16.7022 17.3276 16.0641 17.8396L14.2049 15.295ZM30.6894 11.9838V8.06128H35.3107V11.9849C34.5487 11.9202 33.7785 11.8853 33 11.8853C32.2243 11.8853 31.4535 11.9184 30.6894 11.9838Z" fill="#FFAA32"/>
<path d="M49.3673 57.9991C44.8191 61.9093 39.0063 64.0626 32.9999 64.0626C19.1487 64.0626 7.87997 52.7939 7.87997 38.9427C7.87997 35.9911 8.3867 33.1013 9.38624 30.3539C9.56916 29.8512 9.3098 29.2953 8.80707 29.1124C8.30446 28.9294 7.74849 29.1887 7.56557 29.6916C6.48856 32.6519 5.94238 35.7645 5.94238 38.9427C5.94264 53.8623 18.0805 66.0001 32.9999 66.0001C39.4695 66.0001 45.7307 63.6804 50.6302 59.4683C51.0359 59.1195 51.082 58.5079 50.7332 58.1023C50.3845 57.6966 49.7728 57.6506 49.3673 57.9991Z" fill="#FFAA32"/>
<path d="M46.7351 23.0758C47.0664 22.6558 46.9946 22.0467 46.5746 21.7153C42.6738 18.6375 37.9796 17.0107 33 17.0107C20.9065 17.0107 11.0679 26.8494 11.0679 38.9427C11.0679 51.0362 20.9065 60.8748 33 60.8748C45.0935 60.8748 54.9321 51.0362 54.9321 38.9427C54.9321 33.63 53.0079 28.5042 49.5142 24.5099C49.162 24.107 48.5501 24.0662 48.1474 24.4185C47.7447 24.7706 47.7038 25.3826 48.056 25.7854C51.0279 29.1831 52.7532 33.4793 52.9707 37.9741H49.9983C49.4634 37.9741 49.0296 38.4079 49.0296 38.9429C49.0296 39.4778 49.4632 39.9116 49.9983 39.9116H52.9708C52.479 50.1675 44.2245 58.422 33.9686 58.9137V55.9412C33.9686 55.4062 33.5348 54.9725 32.9999 54.9725C32.4649 54.9725 32.0311 55.4061 32.0311 55.9412V58.9137C21.7752 58.422 13.5207 50.1674 13.0289 39.9116H16.0014C16.5363 39.9116 16.9701 39.4778 16.9701 38.9429C16.9701 38.4079 16.5365 37.9741 16.0014 37.9741H13.0289C13.5206 27.7182 21.7752 19.4636 32.0311 18.9719V21.9444C32.0311 22.4793 32.4648 22.9131 32.9999 22.9131C33.5348 22.9131 33.9686 22.4795 33.9686 21.9444V18.9715C38.1473 19.1675 42.0729 20.6313 45.3745 23.2363C45.7946 23.5676 46.4037 23.4958 46.7351 23.0758Z" fill="#FFAA32"/>
<path d="M33.0001 35.2263C30.9508 35.2263 29.2837 36.8935 29.2837 38.9427C29.2837 40.9919 30.9508 42.659 33.0001 42.659C33.6737 42.659 34.3055 42.4779 34.8509 42.1634L41.4974 48.8099C41.8758 49.1883 42.4891 49.1883 42.8673 48.8099C43.2457 48.4317 43.2457 47.8183 42.8673 47.44L36.2208 40.7935C36.5354 40.2481 36.7164 39.6163 36.7164 38.9428C36.7166 36.8933 35.0493 35.2263 33.0001 35.2263ZM31.221 38.9427C31.221 37.9617 32.0191 37.1636 33.0001 37.1636C33.981 37.1636 34.7791 37.9617 34.7791 38.9427C34.7791 39.9237 33.981 40.7216 33.0001 40.7216C32.0191 40.7216 31.221 39.9235 31.221 38.9427Z" fill="#FFAA32"/>
</g>
<defs>
<clipPath id="clip0">
<rect width="66" height="66" fill="white"/>
</clipPath>
</defs>
</svg>
