<svg width="14" height="12" viewBox="0 0 14 12" fill="none" xmlns="http://www.w3.org/2000/svg">
<path d="M12.7497 11.5001C13.0643 11.5001 13.337 11.3961 13.5688 11.191L9.60247 7.22446C9.5073 7.2926 9.41506 7.35886 9.32793 7.42187C9.03111 7.64057 8.7902 7.81122 8.60521 7.9335C8.42025 8.05606 8.17416 8.18099 7.86696 8.30854C7.55957 8.43623 7.27319 8.49988 7.00753 8.49988H6.99975H6.99197C6.72628 8.49988 6.4399 8.43626 6.13253 8.30854C5.82516 8.18099 5.57907 8.05606 5.39428 7.9335C5.20932 7.81122 4.96854 7.64059 4.67156 7.42187C4.5888 7.3612 4.49702 7.29463 4.39779 7.22339L0.430664 11.191C0.662446 11.3961 0.935302 11.5001 1.24997 11.5001H12.7497Z" fill="#0B356B"/>
<path d="M0.789135 4.72676C0.492336 4.52889 0.229138 4.30226 0 4.047V10.0817L3.49594 6.58579C2.79655 6.09752 1.89543 5.47856 0.789135 4.72676Z" fill="#0B356B"/>
<path d="M13.2182 4.72676C12.1541 5.44699 11.2497 6.06702 10.5049 6.58719L13.9994 10.0819V4.047C13.7754 4.29713 13.515 4.5236 13.2182 4.72676Z" fill="#0B356B"/>
<path d="M12.7496 0.500122H1.2499C0.848713 0.500122 0.540273 0.635597 0.324199 0.906267C0.107948 1.17706 0 1.51573 0 1.92187C0 2.24993 0.143253 2.6054 0.429631 2.98836C0.716009 3.37117 1.02074 3.67186 1.34367 3.89058C1.5207 4.01566 2.05457 4.3868 2.94527 5.00389C3.42609 5.33708 3.84423 5.6275 4.20356 5.87812C4.50984 6.09152 4.77398 6.27633 4.99206 6.4297C5.0171 6.44727 5.05647 6.47543 5.10873 6.51279C5.16503 6.55323 5.23627 6.60455 5.32416 6.66802C5.49342 6.79043 5.63403 6.88938 5.74602 6.96497C5.85785 7.04058 5.99335 7.12505 6.15232 7.21884C6.31115 7.3125 6.46096 7.38293 6.60157 7.42978C6.7422 7.4766 6.87239 7.50008 6.99216 7.50008H6.99994H7.00771C7.12745 7.50008 7.25767 7.4766 7.39833 7.42978C7.53891 7.38293 7.68859 7.31265 7.84756 7.21884C8.00636 7.12505 8.14169 7.04041 8.25388 6.96497C8.36587 6.88938 8.50648 6.79045 8.67576 6.66802C8.76347 6.60455 8.83472 6.55321 8.89102 6.51292C8.9433 6.4754 8.98265 6.44742 9.00784 6.4297C9.17773 6.31149 9.44247 6.12744 9.79842 5.88028C10.4461 5.43026 11.4 4.76791 12.664 3.89058C13.0442 3.62504 13.3618 3.3046 13.6171 2.92972C13.8719 2.55484 13.9996 2.16161 13.9996 1.75015C13.9996 1.40638 13.8758 1.11222 13.6286 0.867226C13.3811 0.622532 13.0881 0.500122 12.7496 0.500122Z" fill="#0B356B"/>
</svg>
