<svg width="109" height="30" viewBox="0 0 109 30" fill="none" xmlns="http://www.w3.org/2000/svg">
<rect width="109" height="30" rx="3" fill="url(#paint0_linear)"/>
<g clip-path="url(#clip0)">
<path d="M56.12 14.68C55.48 14.68 55 14.84 54.52 15.16V20.12C55 20.12 55.32 20.12 55.64 20.12C57.24 20.12 57.4 19.32 57.4 18.36V15.96C57.56 15.16 57.24 14.68 56.12 14.68ZM45.72 14.36C44.6 14.36 44.44 15 44.44 15.64V16.12H47V15.64C47 15 46.68 14.36 45.72 14.36ZM25.24 19.48C25.24 20.12 25.56 20.44 26.2 20.44C26.84 20.44 27.32 20.28 27.8 19.96V18.84H26.2C25.56 18.84 25.24 19 25.24 19.48ZM66.36 14.68C65.24 14.68 64.92 15.32 64.92 15.96V18.68C64.92 19.48 65.24 19.96 66.36 19.96C67.48 19.96 67.8 19.32 67.8 18.68V15.96C67.96 15.16 67.48 14.68 66.36 14.68ZM19.8 22.68H16.6V14.84H15V12.12H16.6V10.52C16.6 8.28 17.56 7 20.12 7H22.36V9.72H20.92C19.96 9.56 19.8 10.04 19.8 10.68V11.96H22.2L22.04 14.84H19.8V22.68ZM31 22.68H28.28L28.12 21.88C26.84 22.68 25.72 22.68 25.08 22.68C23 22.68 22.04 21.4 22.04 19.64C22.04 17.56 23.32 16.76 25.4 16.76H27.64V16.12C27.64 15.16 27.64 14.84 25.88 14.84H23.16L23.48 12.12H26.52C30.04 12.12 31 13.24 31 16.28V22.68ZM40.12 15C38.52 14.68 37.88 14.68 37.08 14.68C35.64 14.68 35.16 15 35.16 16.28V18.68C35.16 19.96 35.64 20.28 37.08 20.28C37.88 20.28 38.36 20.28 40.12 19.96V22.52C38.68 22.84 37.72 23 36.92 23C33.4 23 32.12 21.24 32.12 18.52V16.44C32.12 13.72 33.56 11.96 36.92 11.96C37.72 11.96 38.68 12.12 40.12 12.44V15ZM50.2 18.2H44.28V18.36C44.28 19.64 44.76 19.96 46.2 19.96C47.48 19.96 48.28 19.96 50.04 19.64V22.2C48.44 22.52 47.64 22.68 46.04 22.68C42.52 22.68 41.24 20.92 41.24 18.2V16.12C41.24 13.88 42.2 11.96 45.88 11.96C49.56 11.96 50.2 13.72 50.2 16.12V18.2ZM60.76 18.36C60.76 20.92 59.96 22.84 55.64 22.84C54.04 22.84 53.08 22.68 51.32 22.36V7.8L54.52 7.32V12.44C55.16 12.12 56.12 12.12 56.92 12.12C60.12 12.12 60.76 13.56 60.76 15.96V18.36ZM71.16 18.36C71.16 20.6 70.2 22.68 66.52 22.68C62.68 22.68 61.72 20.6 61.72 18.36V16.28C61.72 14.04 62.68 11.96 66.52 11.96C70.36 11.96 71.16 14.04 71.16 16.28V18.36ZM81.56 18.36C81.56 20.6 80.6 22.68 76.92 22.68C73.08 22.68 72.12 20.6 72.12 18.36V16.28C72.12 14.04 73.08 11.96 76.92 11.96C80.76 11.96 81.56 14.04 81.56 16.28V18.36ZM92.12 22.68H88.6L85.56 17.72V22.68H82.36V7.8L85.56 7.32V16.92L88.6 12.12H92.12L88.92 17.24L92.12 22.68ZM76.76 14.68C75.64 14.68 75.32 15.32 75.32 15.96V18.68C75.32 19.48 75.64 19.96 76.76 19.96C77.88 19.96 78.2 19.32 78.2 18.68V15.96C78.36 15.16 77.88 14.68 76.76 14.68ZM94.04 20.76C94.52 20.76 95 21.24 95 21.72C95 22.36 94.52 22.68 94.04 22.68C93.56 22.68 93.08 22.2 93.08 21.72C93.08 21.24 93.4 20.76 94.04 20.76ZM94.04 20.92C93.56 20.92 93.24 21.24 93.24 21.72C93.24 22.2 93.56 22.52 94.04 22.52C94.52 22.52 94.84 22.2 94.84 21.72C94.84 21.24 94.52 20.92 94.04 20.92ZM93.88 22.36H93.72V21.24C93.88 21.24 93.88 21.24 94.04 21.24C94.2 21.24 94.36 21.24 94.36 21.4L94.52 21.56C94.52 21.72 94.36 21.72 94.36 21.88C94.52 21.88 94.52 22.04 94.52 22.2C94.52 22.36 94.52 22.36 94.52 22.52H94.36C94.36 22.52 94.36 22.36 94.36 22.2C94.36 22.04 94.2 22.04 94.2 22.04H94.04L93.88 22.36ZM93.88 21.72C94.2 21.72 94.2 21.72 94.2 21.56C94.2 21.4 94.2 21.4 93.88 21.4H93.72V21.72H93.88Z" fill="white"/>
</g>
<defs>
<linearGradient id="paint0_linear" x1="29.5208" y1="1.25" x2="77.8777" y2="41.6487" gradientUnits="userSpaceOnUse">
<stop stop-color="#2D4251"/>
<stop offset="1" stop-color="#4E718A"/>
</linearGradient>
<clipPath id="clip0">
<rect width="80" height="16" fill="white" transform="translate(15 7)"/>
</clipPath>
</defs>
</svg>
