<svg width="109" height="30" viewBox="0 0 109 30" fill="none" xmlns="http://www.w3.org/2000/svg">
<rect width="109" height="30" rx="3" fill="url(#paint0_linear)"/>
<path d="M35.4928 13.46V15.1H39.6247C39.4982 16.02 39.175 16.6933 38.6831 17.1667C38.0788 17.74 37.1371 18.3667 35.4928 18.3667C32.949 18.3667 30.9604 16.42 30.9604 14.0067C30.9604 11.5933 32.949 9.64667 35.4928 9.64667C36.8631 9.64667 37.868 10.16 38.6058 10.82L39.8215 9.66667C38.7955 8.72 37.4182 8 35.4928 8C32.0074 8 29.0771 10.6933 29.0771 14C29.0771 17.3067 32.0074 20 35.4928 20C37.3761 20 38.7955 19.4133 39.9058 18.32C41.0442 17.24 41.4026 15.7133 41.4026 14.4867C41.4026 14.1067 41.3744 13.7533 41.3112 13.46H35.4928Z" fill="white"/>
<path d="M46.5675 12.1266C44.3118 12.1266 42.4707 13.7533 42.4707 16C42.4707 18.2266 44.3118 19.8733 46.5675 19.8733C48.8231 19.8733 50.6642 18.2333 50.6642 16C50.6642 13.7533 48.8231 12.1266 46.5675 12.1266ZM46.5675 18.3466C45.3307 18.3466 44.2626 17.38 44.2626 16C44.2626 14.6066 45.3307 13.6533 46.5675 13.6533C47.8042 13.6533 48.8723 14.6066 48.8723 16C48.8723 17.38 47.8042 18.3466 46.5675 18.3466Z" fill="white"/>
<path d="M66.6508 12.9933H66.5875C66.187 12.54 65.414 12.1266 64.4373 12.1266C62.3994 12.1266 60.6216 13.8133 60.6216 16C60.6216 18.1733 62.3994 19.8733 64.4373 19.8733C65.414 19.8733 66.187 19.46 66.5875 18.9933H66.6508V19.5333C66.6508 21.0133 65.8146 21.8067 64.4724 21.8067C63.3762 21.8067 62.6946 21.06 62.4135 20.4267L60.8535 21.04C61.3032 22.0667 62.4908 23.3267 64.4724 23.3267C66.5735 23.3267 68.3513 22.1533 68.3513 19.2933V12.3266H66.6508V12.9933ZM64.5919 18.3466C63.3551 18.3466 62.4135 17.3466 62.4135 16C62.4135 14.6333 63.3551 13.6533 64.5919 13.6533C65.8146 13.6533 66.7702 14.6533 66.7702 16.0133C66.7773 17.3666 65.8146 18.3466 64.5919 18.3466Z" fill="white"/>
<path d="M55.7027 12.1266C53.447 12.1266 51.606 13.7533 51.606 16C51.606 18.2266 53.447 19.8733 55.7027 19.8733C57.9584 19.8733 59.7995 18.2333 59.7995 16C59.7995 13.7533 57.9584 12.1266 55.7027 12.1266ZM55.7027 18.3466C54.466 18.3466 53.3979 17.38 53.3979 16C53.3979 14.6066 54.466 13.6533 55.7027 13.6533C56.9395 13.6533 58.0076 14.6066 58.0076 16C58.0076 17.38 56.9395 18.3466 55.7027 18.3466Z" fill="white"/>
<path d="M69.7568 8.15997H71.5206V19.8733H69.7568V8.15997Z" fill="white"/>
<path d="M76.9665 18.3466C76.053 18.3466 75.4065 17.9533 74.9849 17.1733L80.4449 15.0333L80.2622 14.5933C79.9249 13.7266 78.8849 12.1266 76.7698 12.1266C74.6687 12.1266 72.9189 13.6933 72.9189 16C72.9189 18.1733 74.6476 19.8733 76.9665 19.8733C78.8357 19.8733 79.9179 18.7866 80.3676 18.16L78.9763 17.28C78.5125 17.92 77.88 18.3466 76.9665 18.3466ZM76.84 13.58C77.5638 13.58 78.1822 13.9333 78.386 14.4333L74.6968 15.88C74.6968 14.2533 75.9125 13.58 76.84 13.58Z" fill="white"/>
<defs>
<linearGradient id="paint0_linear" x1="29.5208" y1="1.25" x2="77.8777" y2="41.6487" gradientUnits="userSpaceOnUse">
<stop stop-color="#2D4251"/>
<stop offset="1" stop-color="#4E718A"/>
</linearGradient>
</defs>
</svg>
