<svg width="109" height="30" viewBox="0 0 109 30" fill="none" xmlns="http://www.w3.org/2000/svg">
<rect width="109" height="30" rx="3" fill="url(#paint0_linear)"/>
<g clip-path="url(#clip0)">
<path d="M20.4 18.68L21.36 12.44C21.04 12.44 20.24 12.44 20.24 12.44C19.76 12.44 19.12 12.12 18.96 11.64C18.96 11.48 18.8 10.84 19.6 10.36C19.92 10.2 20.08 9.87998 20.08 9.71998C20.08 9.55998 20.08 9.39998 19.92 9.23998C19.92 9.07998 19.6 8.91998 19.12 8.91998C18.32 8.91998 17.84 9.39998 17.84 9.71998C17.68 10.04 18 10.2 18 10.2C18.48 10.52 18.64 11 18.32 11.48C18 11.96 17.36 12.28 16.72 12.28C16.72 12.28 16.08 12.28 15.6 12.28C15.6 13.08 14.16 22.2 14 23H19.76C19.92 22.68 20.08 20.92 20.4 18.68Z" fill="white"/>
<path d="M28.24 7H22.32L21.52 11.96H22.48C23.12 11.96 23.6 11.8 23.92 11.32C23.92 11.16 24.08 11.16 24.08 11C24.08 10.84 23.92 10.68 23.76 10.52C23.28 10.36 23.28 10.04 23.28 9.72V9.56C23.28 9.08 24.08 8.6 24.88 8.6C25.52 8.6 25.84 8.76 26.16 8.92C26.32 9.08 26.48 9.4 26.48 9.72C26.32 10.2 26 10.52 25.84 10.68C25.2 11 25.36 11.32 25.36 11.48C25.36 11.8 25.84 11.96 26.32 11.96H27.92C30 11.96 31.12 12.92 30.8 15.16C30.32 17.24 28.72 18.2 26.8 18.2L26 23H27.12C31.76 23 35.6 19.96 36.4 15.32C37.36 9.4 33.68 7 28.24 7Z" fill="white"/>
<path d="M42.3202 10.2H47.7602C50.1602 10.2 50.6402 11.32 50.4802 12.44C50.3202 13.24 49.8402 13.88 48.7202 14.36C50.0002 14.84 50.4802 15.64 50.3202 16.76C50.0002 18.2 48.7202 19.32 46.9602 19.32H40.7202L42.3202 10.2ZM46.0002 14.2C47.1202 14.2 47.6002 13.72 47.6002 12.92C47.7602 12.28 47.4402 11.8 46.3202 11.8H45.3602L44.8802 14.2H46.0002ZM45.3602 18.2C46.4802 18.2 47.1202 17.72 47.2802 16.76C47.4402 15.96 46.9602 15.48 45.8402 15.48H44.7202L44.4002 18.2H45.3602Z" fill="white"/>
<path d="M58.0004 19.64C56.5604 19.8 55.9204 19.64 55.6004 19C54.8004 19.48 54.0004 19.8 53.0404 19.8C51.4404 19.8 50.8004 19 50.9604 18.04C50.9604 17.56 51.2804 17.24 51.7604 16.76C52.5604 15.96 54.8004 15.96 55.7604 15.32C55.7604 14.68 55.6004 14.36 54.8004 14.36C53.8404 14.36 53.0404 14.68 51.7604 15.64L51.9204 13.4C53.0404 12.6 54.1604 12.12 55.4404 12.12C57.0404 12.12 58.6404 12.76 58.3204 14.52L58.0004 16.6C57.8404 17.24 57.8404 17.56 58.6404 17.56L58.0004 19.64ZM55.6004 16.44C54.8004 16.92 53.3604 16.92 53.2004 17.88C53.2004 18.36 53.3604 18.68 53.8404 18.68C54.3204 18.68 54.8004 18.52 55.2804 18.2C55.2804 18.04 55.2804 17.88 55.2804 17.56L55.6004 16.44Z" fill="white"/>
<path d="M60.7203 12.44H63.6003L63.2803 13.4C64.2403 12.6 64.8803 12.28 65.6803 12.28C67.2803 12.28 68.0803 13.24 67.7603 14.84L66.9603 19.64H64.0803L64.7203 15.64C64.8803 15 64.5603 14.52 64.0803 14.52C63.6003 14.52 63.2803 14.84 62.8003 15.32L62.1603 19.48H59.2803L60.7203 12.44Z" fill="white"/>
<path d="M70.1602 10.2H73.0402L72.4002 14.84L75.1202 12.44H78.6402L75.1202 15.48L77.8402 19.64H74.3202L72.0802 16.28L71.6002 19.64H68.7202L70.1602 10.2Z" fill="white"/>
<path d="M42.3202 10.2H47.7602C50.1602 10.2 50.6402 11.32 50.4802 12.44C50.3202 13.24 49.8402 13.88 48.7202 14.36C50.0002 14.84 50.4802 15.64 50.3202 16.76C50.0002 18.2 48.7202 19.32 46.9602 19.32H40.7202L42.3202 10.2ZM46.0002 14.2C47.1202 14.2 47.6002 13.72 47.6002 12.92C47.7602 12.28 47.4402 11.8 46.3202 11.8H45.3602L44.8802 14.2H46.0002ZM45.3602 18.2C46.4802 18.2 47.1202 17.72 47.2802 16.76C47.4402 15.96 46.9602 15.48 45.8402 15.48H44.7202L44.4002 18.2H45.3602Z" fill="white"/>
<path d="M58.0004 19.64C56.5604 19.8 55.9204 19.64 55.6004 19C54.8004 19.48 54.0004 19.8 53.0404 19.8C51.4404 19.8 50.8004 19 50.9604 18.04C50.9604 17.56 51.2804 17.24 51.7604 16.76C52.5604 15.96 54.8004 15.96 55.7604 15.32C55.7604 14.68 55.6004 14.36 54.8004 14.36C53.8404 14.36 53.0404 14.68 51.7604 15.64L51.9204 13.4C53.0404 12.6 54.1604 12.12 55.4404 12.12C57.0404 12.12 58.6404 12.76 58.3204 14.52L58.0004 16.6C57.8404 17.24 57.8404 17.56 58.6404 17.56L58.0004 19.64ZM55.6004 16.44C54.8004 16.92 53.3604 16.92 53.2004 17.88C53.2004 18.36 53.3604 18.68 53.8404 18.68C54.3204 18.68 54.8004 18.52 55.2804 18.2C55.2804 18.04 55.2804 17.88 55.2804 17.56L55.6004 16.44Z" fill="white"/>
<path d="M60.7203 12.44H63.6003L63.2803 13.4C64.2403 12.6 64.8803 12.28 65.6803 12.28C67.2803 12.28 68.0803 13.24 67.7603 14.84L66.9603 19.64H64.0803L64.7203 15.64C64.8803 15 64.5603 14.52 64.0803 14.52C63.6003 14.52 63.2803 14.84 62.8003 15.32L62.1603 19.48H59.2803L60.7203 12.44Z" fill="white"/>
<path d="M70.1602 10.2H73.0402L72.4002 14.84L75.1202 12.44H78.6402L75.1202 15.48L77.8402 19.64H74.3202L72.0802 16.28L71.6002 19.64H68.7202L70.1602 10.2Z" fill="white"/>
<path d="M80.0801 10.2H83.4401L82.0001 19.48H78.6401L80.0801 10.2Z" fill="white"/>
<path d="M85.0401 10.2H89.6801C93.2001 10.2 94.3201 12.76 94.0001 15C93.6801 17.08 91.9201 19.48 88.8801 19.48H83.6001L85.0401 10.2ZM88.0801 17.4C89.6801 17.4 90.4801 16.6 90.8001 15C90.9601 13.72 90.6401 12.6 88.8801 12.6H87.9201L87.1201 17.56L88.0801 17.4Z" fill="white"/>
</g>
<defs>
<linearGradient id="paint0_linear" x1="29.5208" y1="1.25" x2="77.8777" y2="41.6487" gradientUnits="userSpaceOnUse">
<stop stop-color="#2D4251"/>
<stop offset="1" stop-color="#4E718A"/>
</linearGradient>
<clipPath id="clip0">
<rect width="80" height="16" fill="white" transform="translate(14 7)"/>
</clipPath>
</defs>
</svg>
