<svg width="35" height="36" viewBox="0 0 35 36" fill="none" xmlns="http://www.w3.org/2000/svg">
<path d="M34.7969 10.8672C34.7969 10.8516 34.7891 10.8438 34.7891 10.8281C34.5938 9.79688 34.2734 8.8125 33.8438 7.88281C33.8281 7.84375 33.8125 7.8125 33.7969 7.78125C33.3984 6.9375 32.8984 6.14844 32.3281 5.42969C32.3047 5.39062 32.2812 5.35938 32.25 5.32812C32.2422 5.32031 32.2422 5.32031 32.2344 5.32031C31.6719 4.625 31.0391 3.99219 30.3359 3.42969C30.3281 3.42188 30.3281 3.42188 30.3281 3.41406C30.2969 3.38281 30.2656 3.35938 30.2266 3.33594C29.5 2.76563 28.7109 2.27344 27.8672 1.88281C27.8359 1.85938 27.8047 1.84375 27.7656 1.83594C26.8359 1.40625 25.8438 1.08594 24.8047 0.898437C24.7891 0.898437 24.7812 0.890625 24.7656 0.890625C24.0547 0.765625 23.3203 0.695312 22.5781 0.695312C22.0078 0.695312 21.4375 0.734375 20.8828 0.8125C20.8828 0.8125 20.8828 0.8125 20.875 0.8125C15.625 1.53125 11.4141 5.53906 10.3828 10.6875C9.03906 10.9531 7.73438 11.4453 6.54688 12.1406C6.30469 12.2812 6.22656 12.5938 6.36719 12.8359C6.50781 13.0781 6.82031 13.1562 7.0625 13.0156C8.04687 12.4375 9.10938 12.0156 10.2188 11.7578C10.1719 12.2031 10.1406 12.6562 10.1406 13.1172C10.1406 13.8594 10.2031 14.5938 10.3359 15.3047C10.3359 15.3203 10.3438 15.3359 10.3438 15.3438C10.5312 16.3828 10.8516 17.375 11.2812 18.3047C11.2969 18.3359 11.3125 18.375 11.3281 18.4062C11.7266 19.25 12.2188 20.0391 12.7812 20.7656C12.8047 20.8047 12.8281 20.8359 12.8594 20.8672C12.8672 20.875 12.8672 20.875 12.875 20.875C13.4375 21.5703 14.0703 22.2109 14.7656 22.7734C14.7734 22.7812 14.7734 22.7812 14.7734 22.7891C14.8047 22.8203 14.8359 22.8437 14.875 22.8672C15.6016 23.4375 16.3906 23.9375 17.2266 24.3359C17.2578 24.3594 17.2969 24.375 17.3281 24.3828C18.25 24.8125 19.2422 25.1406 20.2734 25.3281C20.2891 25.3281 20.2969 25.3359 20.3125 25.3359C21.0469 25.4688 21.8047 25.5391 22.5703 25.5391C23.0312 25.5391 23.4844 25.5156 23.9297 25.4609C22.75 30.5078 18.2188 34.2734 12.8203 34.2734C6.52344 34.2891 1.40625 29.1719 1.40625 22.875C1.40625 19.7031 2.67969 16.7578 4.98438 14.5781C5.1875 14.3828 5.19531 14.0625 5.00781 13.8594C4.8125 13.6562 4.49219 13.6484 4.28906 13.8359C3.07031 14.9844 2.10938 16.3438 1.4375 17.8672C0.742188 19.4531 0.390625 21.1328 0.390625 22.875C0.390625 29.7266 5.96875 35.3047 12.8203 35.3047C18.8438 35.3047 23.875 31 25.0078 25.3125C30.1875 24.2812 34.2109 20.0234 34.8984 14.7266V14.7188C34.9688 14.1953 35 13.6641 35 13.125C35 12.3516 34.9297 11.5938 34.7969 10.8672ZM31.8281 6.46094C32.1641 6.92969 32.4688 7.42969 32.7344 7.94531L23.7344 16.9453C23.4531 16.4375 23.1406 15.9453 22.7969 15.4844L31.8281 6.46094ZM31.1953 5.65625L22.1641 14.6875C21.7891 14.2656 21.3906 13.8672 20.9609 13.4922L29.9922 4.46094C30.4219 4.82812 30.8281 5.22656 31.1953 5.65625ZM29.1875 3.82812L20.1641 12.8594C19.6953 12.5156 19.2109 12.2031 18.6953 11.9297L27.6953 2.92969C28.2188 3.19531 28.7188 3.49219 29.1875 3.82812ZM24.8516 1.9375C25.4922 2.07031 26.1094 2.25 26.7031 2.48438L17.7266 11.4609C17.1562 11.2109 16.5547 11.0078 15.9453 10.8516L24.8516 1.9375ZM21.1641 1.79687C21.625 1.74219 22.0938 1.71094 22.5703 1.71094C22.9141 1.71094 23.2578 1.72656 23.6016 1.75781L14.7578 10.6016C14.125 10.5 13.4766 10.4531 12.8203 10.4531C12.7188 10.4531 12.6172 10.4531 12.5078 10.4609L21.1641 1.79687ZM19.3516 2.17188L11.625 9.89844C12.7188 6.19531 15.6406 3.26562 19.3516 2.17188ZM11.2031 14.1484C11.1719 13.8125 11.1562 13.4688 11.1562 13.1172C11.1562 12.6406 11.1875 12.1719 11.2422 11.7109L11.4062 11.5469C11.875 11.4922 12.3438 11.4609 12.8125 11.4609C13.1562 11.4609 13.5 11.4766 13.8438 11.5078L11.2031 14.1484ZM11.3906 15.4062L15.1016 11.6953C15.7422 11.8281 16.3594 12.0078 16.9531 12.2422L11.9375 17.2578C11.7031 16.6641 11.5156 16.0391 11.3906 15.4062ZM13.2812 19.7422C12.9453 19.2734 12.6406 18.7734 12.3828 18.25L17.9531 12.6797C18.4766 12.9453 18.9766 13.2422 19.4453 13.5781L13.2812 19.7422ZM13.9141 20.5469L20.2422 14.2188C20.6719 14.5859 21.0703 14.9844 21.4453 15.4141L15.1016 21.75C14.6797 21.375 14.2812 20.9766 13.9141 20.5469ZM15.9062 22.3828L22.0781 16.2109C22.4141 16.6797 22.7188 17.1797 22.9844 17.6953L17.3906 23.2891C16.875 23.0234 16.375 22.7188 15.9062 22.3828ZM20.2188 24.2891C19.5859 24.1562 18.9688 23.9688 18.375 23.7344L23.4297 18.6797C23.6641 19.2734 23.8516 19.8828 23.9844 20.5234L20.2188 24.2891ZM24.1562 24.1875L23.8828 24.4609C23.4531 24.5078 23.0156 24.5391 22.5703 24.5391C22.1953 24.5391 21.8281 24.5234 21.4688 24.4844L24.1797 21.7734C24.2109 22.1328 24.2344 22.5078 24.2344 22.875C24.2344 23.3203 24.2031 23.7578 24.1562 24.1875ZM24.8281 19.6797C24.6641 19.0703 24.4609 18.4766 24.2109 17.9062L33.1875 8.92969C33.4219 9.52344 33.6094 10.1328 33.7422 10.7734L24.8281 19.6797ZM25.6719 24.1094L33.5547 16.2266C32.4766 20.0312 29.4766 23.0312 25.6719 24.1094ZM33.9062 14.4375L25.2422 23.1016C25.2422 23.0234 25.2422 22.9531 25.2422 22.875C25.2422 22.1875 25.1875 21.5234 25.0781 20.8672L33.9219 12.0234C33.9531 12.3828 33.9766 12.7578 33.9766 13.125C33.9844 13.5703 33.9609 14.0078 33.9062 14.4375Z" fill="#0B356B"/>
</svg>
